<?xml version="1.0" standalone="yes"?>

<svg version="1.1" viewBox="0.0 0.0 960.0 720.0" fill="none" stroke="none" stroke-linecap="square" stroke-miterlimit="10" clip-path="url(#clip0)" xmlns="http://www.w3.org/2000/svg" xmlns:xlink="http://www.w3.org/1999/xlink"><clipPath id="clip0"><path d="M0 0L960.0 0L960.0 720.0L0 720.0L0 0Z" clip-rule="nonzero"></path></clipPath><path d="M215.50131 103.93228L215.50131 103.93228C215.50131 89.47402 227.22205 77.75328 241.68031 77.75328L467.6845 77.75328C474.62762 77.75328 481.28635 80.51142 486.19586 85.42094C491.10538 90.330444 493.86353 96.98918 493.86353 103.93228L493.86353 208.64514C493.86353 223.10341 482.1428 234.82414 467.6845 234.82414L241.68031 234.82414C227.22205 234.82414 215.50131 223.10341 215.50131 208.64514Z" fill-rule="nonzero" fill="#f3f3f3" stroke="#cccccc" stroke-width="2.0" stroke-linejoin="round" stroke-linecap="butt"></path><path d="M263.10037 137.30434L266.6785 136.99184Q266.9285 139.14809 267.8582 140.52309Q268.78787 141.89809 270.741 142.74965Q272.69412 143.60121 275.13162 143.60121Q277.3035 143.60121 278.95975 142.95277Q280.616 142.30434 281.4285 141.17934Q282.241 140.05434 282.241 138.72621Q282.241 137.38246 281.45975 136.37465Q280.6785 135.36684 278.88162 134.69496Q277.72537 134.24184 273.78006 133.29652Q269.83475 132.35121 268.25662 131.50746Q266.20975 130.42934 265.20193 128.83559Q264.19412 127.24184 264.19412 125.27309Q264.19412 123.10121 265.4285 121.2184Q266.66287 119.33559 269.02225 118.359024Q271.38162 117.38246 274.27225 117.38246Q277.45975 117.38246 279.88943 118.4059Q282.31912 119.42934 283.63162 121.421524Q284.94412 123.41371 285.03787 125.94496L281.39725 126.21059Q281.116 123.49184 279.4207 122.109024Q277.72537 120.72621 274.4285 120.72621Q270.991 120.72621 269.4207 121.984024Q267.85037 123.24184 267.85037 125.02309Q267.85037 126.56996 268.95975 127.55434Q270.0535 128.55434 274.6707 129.60121Q279.28787 130.64809 281.00662 131.42934Q283.50662 132.58559 284.70193 134.35121Q285.89725 136.11684 285.89725 138.41371Q285.89725 140.71059 284.58475 142.72621Q283.27225 144.74184 280.82693 145.86684Q278.38162 146.99184 275.3035 146.99184Q271.4285 146.99184 268.7957 145.85902Q266.16287 144.72621 264.6707 142.45277Q263.1785 140.17934 263.10037 137.30434ZM289.3113 136.13246Q289.3113 130.36684 292.51443 127.60121Q295.1863 125.28871 299.0457 125.28871Q303.3113 125.28871 306.03006 128.0934Q308.7488 130.89809 308.7488 135.83559Q308.7488 139.85121 307.5457 142.14027Q306.34256 144.42934 304.0457 145.70277Q301.7488 146.97621 299.0457 146.97621Q294.6863 146.97621 291.9988 144.17934Q289.3113 141.38246 289.3113 136.13246ZM292.9207 136.13246Q292.9207 140.11684 294.66287 142.10121Q296.40506 144.08559 299.0457 144.08559Q301.65506 144.08559 303.39725 142.0934Q305.13943 140.10121 305.13943 136.02309Q305.13943 132.16371 303.38943 130.18715Q301.63943 128.21059 299.0457 128.21059Q296.40506 128.21059 294.66287 130.17934Q292.9207 132.14809 292.9207 136.13246ZM326.40115 138.91371L329.85428 139.35121Q329.29178 142.92934 326.95584 144.95277Q324.6199 146.97621 321.22928 146.97621Q316.96365 146.97621 314.37772 144.19496Q311.79178 141.41371 311.79178 136.21059Q311.79178 132.85121 312.90897 130.33559Q314.02615 127.81996 316.2996 126.55434Q318.57303 125.28871 321.2449 125.28871Q324.6199 125.28871 326.76834 126.99965Q328.91678 128.71059 329.52615 131.85121L326.10428 132.38246Q325.6199 130.28871 324.37772 129.23402Q323.13553 128.17934 321.38553 128.17934Q318.72928 128.17934 317.06522 130.08559Q315.40115 131.99184 315.40115 136.11684Q315.40115 140.28871 317.00272 142.18715Q318.60428 144.08559 321.1824 144.08559Q323.26053 144.08559 324.64334 142.81215Q326.02615 141.53871 326.40115 138.91371ZM332.88553 146.50746L332.88553 117.86684L336.40115 117.86684L336.40115 134.19496L344.72928 125.75746L349.27615 125.75746L341.33865 133.46059L350.07303 146.50746L345.7449 146.50746L338.88553 135.89809L336.40115 138.28871L336.40115 146.50746L332.88553 146.50746ZM367.07303 139.81996L370.69803 140.27309Q369.83865 143.46059 367.51834 145.2184Q365.19803 146.97621 361.57303 146.97621Q357.02615 146.97621 354.3621 144.17152Q351.69803 141.36684 351.69803 136.30434Q351.69803 131.06996 354.39334 128.17934Q357.08865 125.28871 361.38553 125.28871Q365.54178 125.28871 368.1824 128.12465Q370.82303 130.96059 370.82303 136.10121Q370.82303 136.41371 370.79178 137.03871L355.32303 137.03871Q355.52615 140.44496 357.26053 142.26527Q358.9949 144.08559 361.60428 144.08559Q363.52615 144.08559 364.89334 143.06996Q366.26053 142.05434 367.07303 139.81996ZM355.52615 134.14809L367.10428 134.14809Q366.8699 131.52309 365.77615 130.21059Q364.10428 128.17934 361.41678 128.17934Q358.9949 128.17934 357.34647 129.80434Q355.69803 131.42934 355.52615 134.14809ZM382.78787 143.36684L383.3035 146.46059Q381.81912 146.78871 380.64725 146.78871Q378.72537 146.78871 377.6707 146.17934Q376.616 145.56996 376.1863 144.58559Q375.75662 143.60121 375.75662 140.42934L375.75662 128.49184L373.1785 128.49184L373.1785 125.75746L375.75662 125.75746L375.75662 120.63246L379.25662 118.52309L379.25662 125.75746L382.78787 125.75746L382.78787 128.49184L379.25662 128.49184L379.25662 140.63246Q379.25662 142.13246 379.44412 142.56215Q379.63162 142.99184 380.0457 143.24184Q380.45975 143.49184 381.241 143.49184Q381.83475 143.49184 382.78787 143.36684ZM387.22928 146.50746L387.22928 142.50746L391.22928 142.50746L391.22928 146.50746L387.22928 146.50746ZM397.3582 121.91371L397.3582 117.86684L400.8738 117.86684L400.8738 121.91371L397.3582 121.91371ZM397.3582 146.50746L397.3582 125.75746L400.8738 125.75746L400.8738 146.50746L397.3582 146.50746ZM404.91678 136.13246Q404.91678 130.36684 408.1199 127.60121Q410.79178 125.28871 414.65115 125.28871Q418.91678 125.28871 421.63553 128.0934Q424.35428 130.89809 424.35428 135.83559Q424.35428 139.85121 423.15115 142.14027Q421.94803 144.42934 419.65115 145.70277Q417.35428 146.97621 414.65115 146.97621Q410.29178 146.97621 407.60428 144.17934Q404.91678 141.38246 404.91678 136.13246ZM408.52615 136.13246Q408.52615 140.11684 410.26834 142.10121Q412.01053 144.08559 414.65115 144.08559Q417.26053 144.08559 419.00272 142.0934Q420.7449 140.10121 420.7449 136.02309Q420.7449 132.16371 418.9949 130.18715Q417.2449 128.21059 414.65115 128.21059Q412.01053 128.21059 410.26834 130.17934Q408.52615 132.14809 408.52615 136.13246ZM436.94803 146.99184L445.2449 117.38246L448.0574 117.38246L439.77615 146.99184L436.94803 146.99184Z" fill-rule="nonzero" fill="#434343"></path><path d="M254.57109 192.50746L265.57108 163.86684L269.6492 163.86684L281.36795 192.50746L277.05545 192.50746L273.7117 183.83559L261.74295 183.83559L258.60233 192.50746L254.57109 192.50746ZM262.8367 180.74184L272.53983 180.74184L269.55545 172.81996Q268.19608 169.21059 267.5242 166.88246Q266.97733 169.63246 265.97733 172.35121L262.8367 180.74184ZM283.9539 200.46059L283.9539 171.75746L287.157 171.75746L287.157 174.46059Q288.282 172.88246 289.7117 172.08559Q291.1414 171.28871 293.17264 171.28871Q295.8289 171.28871 297.86014 172.6559Q299.8914 174.02309 300.92264 176.51527Q301.9539 179.00746 301.9539 181.97621Q301.9539 185.16371 300.81326 187.71059Q299.67264 190.25746 297.49295 191.61684Q295.31326 192.97621 292.92264 192.97621Q291.157 192.97621 289.75858 192.23402Q288.36014 191.49184 287.4695 190.35121L287.4695 200.46059L283.9539 200.46059ZM287.1414 182.25746Q287.1414 186.25746 288.75858 188.17152Q290.37576 190.08559 292.68826 190.08559Q295.032 190.08559 296.69608 188.10121Q298.36014 186.11684 298.36014 181.96059Q298.36014 177.99184 296.73514 176.02309Q295.11014 174.05434 292.8445 174.05434Q290.5945 174.05434 288.86795 176.14809Q287.1414 178.24184 287.1414 182.25746ZM306.19998 200.46059L306.19998 171.75746L309.4031 171.75746L309.4031 174.46059Q310.5281 172.88246 311.9578 172.08559Q313.38748 171.28871 315.41873 171.28871Q318.07498 171.28871 320.10623 172.6559Q322.13748 174.02309 323.16873 176.51527Q324.19998 179.00746 324.19998 181.97621Q324.19998 185.16371 323.05936 187.71059Q321.91873 190.25746 319.73904 191.61684Q317.55936 192.97621 315.16873 192.97621Q313.4031 192.97621 312.00467 192.23402Q310.60623 191.49184 309.7156 190.35121L309.7156 200.46059L306.19998 200.46059ZM309.38748 182.25746Q309.38748 186.25746 311.00467 188.17152Q312.62186 190.08559 314.93436 190.08559Q317.2781 190.08559 318.94217 188.10121Q320.60623 186.11684 320.60623 181.96059Q320.60623 177.99184 318.98123 176.02309Q317.35623 174.05434 315.0906 174.05434Q312.8406 174.05434 311.11404 176.14809Q309.38748 178.24184 309.38748 182.25746ZM338.7156 183.30434L342.29373 182.99184Q342.54373 185.14809 343.47342 186.52309Q344.4031 187.89809 346.35623 188.74965Q348.30936 189.60121 350.74686 189.60121Q352.91873 189.60121 354.57498 188.95277Q356.23123 188.30434 357.04373 187.17934Q357.85623 186.05434 357.85623 184.72621Q357.85623 183.38246 357.07498 182.37465Q356.29373 181.36684 354.49686 180.69496Q353.3406 180.24184 349.3953 179.29652Q345.44998 178.35121 343.87186 177.50746Q341.82498 176.42934 340.81717 174.83559Q339.80936 173.24184 339.80936 171.27309Q339.80936 169.10121 341.04373 167.2184Q342.2781 165.33559 344.63748 164.35902Q346.99686 163.38246 349.88748 163.38246Q353.07498 163.38246 355.50467 164.4059Q357.93436 165.42934 359.24686 167.42152Q360.55936 169.41371 360.6531 171.94496L357.01248 172.21059Q356.73123 169.49184 355.03592 168.10902Q353.3406 166.72621 350.04373 166.72621Q346.60623 166.72621 345.03592 167.98402Q343.4656 169.24184 343.4656 171.02309Q343.4656 172.56996 344.57498 173.55434Q345.66873 174.55434 350.28592 175.60121Q354.9031 176.64809 356.62186 177.42934Q359.12186 178.58559 360.31717 180.35121Q361.51248 182.11684 361.51248 184.41371Q361.51248 186.71059 360.19998 188.72621Q358.88748 190.74184 356.44217 191.86684Q353.99686 192.99184 350.91873 192.99184Q347.04373 192.99184 344.41092 191.85902Q341.7781 190.72621 340.28592 188.45277Q338.79373 186.17934 338.7156 183.30434ZM380.44217 185.81996L384.06717 186.27309Q383.2078 189.46059 380.88748 191.2184Q378.56717 192.97621 374.94217 192.97621Q370.3953 192.97621 367.73123 190.17152Q365.06717 187.36684 365.06717 182.30434Q365.06717 177.06996 367.76248 174.17934Q370.4578 171.28871 374.75467 171.28871Q378.91092 171.28871 381.55154 174.12465Q384.19217 176.96059 384.19217 182.10121Q384.19217 182.41371 384.16092 183.03871L368.69217 183.03871Q368.8953 186.44496 370.62967 188.26527Q372.36404 190.08559 374.97342 190.08559Q376.8953 190.08559 378.26248 189.06996Q379.62967 188.05434 380.44217 185.81996ZM368.8953 180.14809L380.47342 180.14809Q380.23904 177.52309 379.1453 176.21059Q377.47342 174.17934 374.78592 174.17934Q372.36404 174.17934 370.7156 175.80434Q369.06717 177.42934 368.8953 180.14809ZM388.43826 192.50746L388.43826 171.75746L391.61014 171.75746L391.61014 174.91371Q392.81326 172.69496 393.8445 171.99184Q394.87576 171.28871 396.0945 171.28871Q397.87576 171.28871 399.7195 172.42934L398.50076 175.69496Q397.2195 174.92934 395.92264 174.92934Q394.7664 174.92934 393.85233 175.62465Q392.93826 176.31996 392.54764 177.53871Q391.9539 179.41371 391.9539 181.64809L391.9539 192.50746L388.43826 192.50746ZM407.57108 192.50746L399.68045 171.75746L403.38358 171.75746L407.8367 184.17934Q408.55545 186.19496 409.16483 188.36684Q409.63358 186.72621 410.47733 184.41371L415.0867 171.75746L418.69608 171.75746L410.85233 192.50746L407.57108 192.50746ZM436.00858 185.81996L439.63358 186.27309Q438.7742 189.46059 436.4539 191.2184Q434.13358 192.97621 430.50858 192.97621Q425.9617 192.97621 423.29764 190.17152Q420.63358 187.36684 420.63358 182.30434Q420.63358 177.06996 423.3289 174.17934Q426.0242 171.28871 430.32108 171.28871Q434.47733 171.28871 437.11795 174.12465Q439.75858 176.96059 439.75858 182.10121Q439.75858 182.41371 439.72733 183.03871L424.25858 183.03871Q424.4617 186.44496 426.19608 188.26527Q427.93045 190.08559 430.53983 190.08559Q432.4617 190.08559 433.8289 189.06996Q435.19608 188.05434 436.00858 185.81996ZM424.4617 180.14809L436.03983 180.14809Q435.80545 177.52309 434.7117 176.21059Q433.03983 174.17934 430.35233 174.17934Q427.93045 174.17934 426.282 175.80434Q424.63358 177.42934 424.4617 180.14809ZM444.00467 192.50746L444.00467 171.75746L447.17654 171.75746L447.17654 174.91371Q448.37967 172.69496 449.41092 171.99184Q450.44217 171.28871 451.66092 171.28871Q453.44217 171.28871 455.28592 172.42934L454.06717 175.69496Q452.78592 174.92934 451.48904 174.92934Q450.3328 174.92934 449.41873 175.62465Q448.50467 176.31996 448.11404 177.53871Q447.5203 179.41371 447.5203 181.64809L447.5203 192.50746L444.00467 192.50746Z" fill-rule="nonzero" fill="#434343"></path><path d="M574.4934 441.17847L390.31183 273.90054" fill-rule="evenodd" stroke="#000000" stroke-width="12.0" stroke-linejoin="round" stroke-linecap="butt"></path><path d="M403.63776 259.228L349.99936 237.28784L376.9859 288.57306Z" fill-rule="evenodd" fill="#000000" stroke="#000000" stroke-width="12.0" stroke-linecap="butt"></path><path d="M366.11548 246.25197L566.1259 425.67017" fill-rule="evenodd" stroke="#000000" stroke-width="12.0" stroke-linejoin="round" stroke-linecap="butt"></path><path d="M552.8906 440.4245L606.66315 462.03384L579.3612 410.91583Z" fill-rule="evenodd" fill="#000000" stroke="#000000" stroke-width="12.0" stroke-linecap="butt"></path><path d="M538.07086 499.92703L538.07086 499.92703C538.07086 485.46878 549.7916 473.74802 564.2499 473.74802L695.38794 473.74802C702.33105 473.74802 708.98975 476.50616 713.8993 481.41568C718.8088 486.3252 721.56696 492.98392 721.56696 499.92703L721.56696 604.6399C721.56696 619.09814 709.8462 630.8189 695.38794 630.8189L564.2499 630.8189L564.2499 630.8189C549.7916 630.8189 538.07086 619.09814 538.07086 604.6399Z" fill-rule="nonzero" fill="#f3f3f3" stroke="#cccccc" stroke-width="2.0" stroke-linejoin="round" stroke-linecap="butt"></path><path d="M602.2017 555.4553L605.9986 556.4241Q604.7955 561.0803 601.7017 563.53345Q598.608 565.9866 594.1392 565.9866Q589.5142 565.9866 586.608 564.10376Q583.7017 562.22095 582.1939 558.6428Q580.6861 555.0647 580.6861 550.97095Q580.6861 546.5022 582.3892 543.16626Q584.09235 539.8303 587.2486 538.10376Q590.40485 536.3772 594.2017 536.3772Q598.4986 536.3772 601.4283 538.5647Q604.358 540.7522 605.4986 544.72095L601.77985 545.59595Q600.77985 542.47095 598.8814 541.0491Q596.983 539.6272 594.1236 539.6272Q590.8111 539.6272 588.60016 541.2053Q586.3892 542.78345 585.4908 545.4475Q584.59235 548.1116 584.59235 550.9553Q584.59235 554.59595 585.65485 557.3225Q586.71735 560.0491 588.95953 561.40063Q591.2017 562.7522 593.8267 562.7522Q597.0142 562.7522 599.21735 560.91626Q601.4205 559.0803 602.2017 555.4553ZM610.1353 565.5022L610.1353 536.8616L613.65094 536.8616L613.65094 565.5022L610.1353 565.5022ZM619.1158 540.90845L619.1158 536.8616L622.6314 536.8616L622.6314 540.90845L619.1158 540.90845ZM619.1158 565.5022L619.1158 544.7522L622.6314 544.7522L622.6314 565.5022L619.1158 565.5022ZM642.19 558.8147L645.815 559.2678Q644.9556 562.4553 642.6353 564.21313Q640.315 565.97095 636.69 565.97095Q632.1431 565.97095 629.47906 563.16626Q626.815 560.3616 626.815 555.2991Q626.815 550.0647 629.5103 547.1741Q632.2056 544.28345 636.5025 544.28345Q640.65875 544.28345 643.2994 547.1194Q645.94 549.9553 645.94 555.09595Q645.94 555.40845 645.90875 556.03345L630.44 556.03345Q630.6431 559.4397 632.3775 561.26Q634.1119 563.0803 636.72125 563.0803Q638.6431 563.0803 640.0103 562.0647Q641.3775 561.0491 642.19 558.8147ZM630.6431 553.1428L642.22125 553.1428Q641.9869 550.5178 640.8931 549.2053Q639.22125 547.1741 636.53375 547.1741Q634.1119 547.1741 632.46344 548.7991Q630.815 550.4241 630.6431 553.1428ZM650.233 565.5022L650.233 544.7522L653.3892 544.7522L653.3892 547.7053Q655.6861 544.28345 659.9986 544.28345Q661.8736 544.28345 663.4439 544.96313Q665.0142 545.6428 665.7955 546.7366Q666.5767 547.8303 666.8892 549.3303Q667.09235 550.2991 667.09235 552.7522L667.09235 565.5022L663.5767 565.5022L663.5767 552.8772Q663.5767 550.7366 663.16266 549.6741Q662.7486 548.6116 661.7017 547.97095Q660.65485 547.3303 659.2486 547.3303Q657.0142 547.3303 655.3814 548.76Q653.7486 550.1897 653.7486 554.1741L653.7486 565.5022L650.233 565.5022ZM680.15094 562.3616L680.66656 565.4553Q679.1822 565.78345 678.0103 565.78345Q676.08844 565.78345 675.03375 565.1741Q673.97906 564.5647 673.5494 563.5803Q673.1197 562.59595 673.1197 559.4241L673.1197 547.4866L670.54156 547.4866L670.54156 544.7522L673.1197 544.7522L673.1197 539.6272L676.6197 537.5178L676.6197 544.7522L680.15094 544.7522L680.15094 547.4866L676.6197 547.4866L676.6197 559.6272Q676.6197 561.1272 676.8072 561.5569Q676.9947 561.9866 677.40875 562.2366Q677.8228 562.4866 678.60406 562.4866Q679.1978 562.4866 680.15094 562.3616Z" fill-rule="nonzero" fill="#434343"></path><path d="M554.07086 515.92706L554.07086 515.92706C554.07086 501.46878 565.7916 489.74802 580.2499 489.74802L711.38794 489.74802C718.33105 489.74802 724.98975 492.50616 729.8993 497.41568C734.8088 502.3252 737.56696 508.98392 737.56696 515.92706L737.56696 620.6399C737.56696 635.09814 725.8462 646.8189 711.38794 646.8189L580.2499 646.8189L580.2499 646.8189C565.7916 646.8189 554.07086 635.09814 554.07086 620.6399Z" fill-rule="nonzero" fill="#f3f3f3" stroke="#cccccc" stroke-width="2.0" stroke-linejoin="round" stroke-linecap="butt"></path><path d="M618.2017 571.4553L621.9986 572.4241Q620.7955 577.0803 617.7017 579.53345Q614.608 581.9866 610.1392 581.9866Q605.5142 581.9866 602.608 580.10376Q599.7017 578.22095 598.1939 574.6428Q596.6861 571.0647 596.6861 566.97095Q596.6861 562.5022 598.3892 559.16626Q600.09235 555.8303 603.2486 554.10376Q606.40485 552.3772 610.2017 552.3772Q614.4986 552.3772 617.4283 554.5647Q620.358 556.7522 621.4986 560.72095L617.77985 561.59595Q616.77985 558.47095 614.8814 557.0491Q612.983 555.6272 610.1236 555.6272Q606.8111 555.6272 604.60016 557.2053Q602.3892 558.78345 601.4908 561.4475Q600.59235 564.1116 600.59235 566.9553Q600.59235 570.59595 601.65485 573.3225Q602.71735 576.0491 604.95953 577.40063Q607.2017 578.7522 609.8267 578.7522Q613.0142 578.7522 615.21735 576.91626Q617.4205 575.0803 618.2017 571.4553ZM626.1353 581.5022L626.1353 552.8616L629.65094 552.8616L629.65094 581.5022L626.1353 581.5022ZM635.1158 556.90845L635.1158 552.8616L638.6314 552.8616L638.6314 556.90845L635.1158 556.90845ZM635.1158 581.5022L635.1158 560.7522L638.6314 560.7522L638.6314 581.5022L635.1158 581.5022ZM658.19 574.8147L661.815 575.2678Q660.9556 578.4553 658.6353 580.21313Q656.315 581.97095 652.69 581.97095Q648.1431 581.97095 645.47906 579.16626Q642.815 576.3616 642.815 571.2991Q642.815 566.0647 645.5103 563.1741Q648.2056 560.28345 652.5025 560.28345Q656.65875 560.28345 659.2994 563.1194Q661.94 565.9553 661.94 571.09595Q661.94 571.40845 661.90875 572.03345L646.44 572.03345Q646.6431 575.4397 648.3775 577.26Q650.1119 579.0803 652.72125 579.0803Q654.6431 579.0803 656.0103 578.0647Q657.3775 577.0491 658.19 574.8147ZM646.6431 569.1428L658.22125 569.1428Q657.9869 566.5178 656.8931 565.2053Q655.22125 563.1741 652.53375 563.1741Q650.1119 563.1741 648.46344 564.7991Q646.815 566.4241 646.6431 569.1428ZM666.233 581.5022L666.233 560.7522L669.3892 560.7522L669.3892 563.7053Q671.6861 560.28345 675.9986 560.28345Q677.8736 560.28345 679.4439 560.96313Q681.0142 561.6428 681.7955 562.7366Q682.5767 563.8303 682.8892 565.3303Q683.09235 566.2991 683.09235 568.7522L683.09235 581.5022L679.5767 581.5022L679.5767 568.8772Q679.5767 566.7366 679.16266 565.6741Q678.7486 564.6116 677.7017 563.97095Q676.65485 563.3303 675.2486 563.3303Q673.0142 563.3303 671.3814 564.76Q669.7486 566.1897 669.7486 570.1741L669.7486 581.5022L666.233 581.5022ZM696.15094 578.3616L696.66656 581.4553Q695.1822 581.78345 694.0103 581.78345Q692.08844 581.78345 691.03375 581.1741Q689.97906 580.5647 689.5494 579.5803Q689.1197 578.59595 689.1197 575.4241L689.1197 563.4866L686.54156 563.4866L686.54156 560.7522L689.1197 560.7522L689.1197 555.6272L692.6197 553.5178L692.6197 560.7522L696.15094 560.7522L696.15094 563.4866L692.6197 563.4866L692.6197 575.6272Q692.6197 577.1272 692.8072 577.5569Q692.9947 577.9866 693.40875 578.2366Q693.8228 578.4866 694.60406 578.4866Q695.1978 578.4866 696.15094 578.3616Z" fill-rule="nonzero" fill="#434343"></path><path d="M570.07086 531.92706L570.07086 531.92706C570.07086 517.46875 581.7916 505.74802 596.2499 505.74802L727.38794 505.74802C734.33105 505.74802 740.98975 508.50616 745.8993 513.4157C750.8088 518.3252 753.56696 524.98395 753.56696 531.92706L753.56696 636.6399C753.56696 651.09814 741.8462 662.8189 727.38794 662.8189L596.2499 662.8189L596.2499 662.8189C581.7916 662.8189 570.07086 651.09814 570.07086 636.6399Z" fill-rule="nonzero" fill="#f3f3f3" stroke="#cccccc" stroke-width="2.0" stroke-linejoin="round" stroke-linecap="butt"></path><path d="M634.2017 587.4553L637.9986 588.4241Q636.7955 593.0803 633.7017 595.53345Q630.608 597.9866 626.1392 597.9866Q621.5142 597.9866 618.608 596.10376Q615.7017 594.22095 614.1939 590.6428Q612.6861 587.0647 612.6861 582.97095Q612.6861 578.5022 614.3892 575.16626Q616.09235 571.8303 619.2486 570.10376Q622.40485 568.3772 626.2017 568.3772Q630.4986 568.3772 633.4283 570.5647Q636.358 572.7522 637.4986 576.72095L633.77985 577.59595Q632.77985 574.47095 630.8814 573.0491Q628.983 571.6272 626.1236 571.6272Q622.8111 571.6272 620.60016 573.2053Q618.3892 574.78345 617.4908 577.4475Q616.59235 580.1116 616.59235 582.9553Q616.59235 586.59595 617.65485 589.3225Q618.71735 592.0491 620.95953 593.40063Q623.2017 594.7522 625.8267 594.7522Q629.0142 594.7522 631.21735 592.91626Q633.4205 591.0803 634.2017 587.4553ZM642.1353 597.5022L642.1353 568.8616L645.65094 568.8616L645.65094 597.5022L642.1353 597.5022ZM651.1158 572.90845L651.1158 568.8616L654.6314 568.8616L654.6314 572.90845L651.1158 572.90845ZM651.1158 597.5022L651.1158 576.7522L654.6314 576.7522L654.6314 597.5022L651.1158 597.5022ZM674.19 590.8147L677.815 591.2678Q676.9556 594.4553 674.6353 596.21313Q672.315 597.97095 668.69 597.97095Q664.1431 597.97095 661.47906 595.16626Q658.815 592.3616 658.815 587.2991Q658.815 582.0647 661.5103 579.1741Q664.2056 576.28345 668.5025 576.28345Q672.65875 576.28345 675.2994 579.1194Q677.94 581.9553 677.94 587.09595Q677.94 587.40845 677.90875 588.03345L662.44 588.03345Q662.6431 591.4397 664.3775 593.26Q666.1119 595.0803 668.72125 595.0803Q670.6431 595.0803 672.0103 594.0647Q673.3775 593.0491 674.19 590.8147ZM662.6431 585.1428L674.22125 585.1428Q673.9869 582.5178 672.8931 581.2053Q671.22125 579.1741 668.53375 579.1741Q666.1119 579.1741 664.46344 580.7991Q662.815 582.4241 662.6431 585.1428ZM682.233 597.5022L682.233 576.7522L685.3892 576.7522L685.3892 579.7053Q687.6861 576.28345 691.9986 576.28345Q693.8736 576.28345 695.4439 576.96313Q697.0142 577.6428 697.7955 578.7366Q698.5767 579.8303 698.8892 581.3303Q699.09235 582.2991 699.09235 584.7522L699.09235 597.5022L695.5767 597.5022L695.5767 584.8772Q695.5767 582.7366 695.16266 581.6741Q694.7486 580.6116 693.7017 579.97095Q692.65485 579.3303 691.2486 579.3303Q689.0142 579.3303 687.3814 580.76Q685.7486 582.1897 685.7486 586.1741L685.7486 597.5022L682.233 597.5022ZM712.15094 594.3616L712.66656 597.4553Q711.1822 597.78345 710.0103 597.78345Q708.08844 597.78345 707.03375 597.1741Q705.97906 596.5647 705.5494 595.5803Q705.1197 594.59595 705.1197 591.4241L705.1197 579.4866L702.54156 579.4866L702.54156 576.7522L705.1197 576.7522L705.1197 571.6272L708.6197 569.5178L708.6197 576.7522L712.15094 576.7522L712.15094 579.4866L708.6197 579.4866L708.6197 591.6272Q708.6197 593.1272 708.8072 593.5569Q708.9947 593.9866 709.40875 594.2366Q709.8228 594.4866 710.60406 594.4866Q711.1978 594.4866 712.15094 594.3616Z" fill-rule="nonzero" fill="#434343"></path></svg>

