<?xml version="1.0" standalone="yes"?>

<svg version="1.1" viewBox="0.0 0.0 960.0 720.0" fill="none" stroke="none" stroke-linecap="square" stroke-miterlimit="10" clip-path="url(#clip0)" xmlns="http://www.w3.org/2000/svg" xmlns:xlink="http://www.w3.org/1999/xlink"><clipPath id="clip0"><path d="M0 0L960.0 0L960.0 720.0L0 720.0L0 0Z" clip-rule="nonzero"></path></clipPath><path d="M340.8189 49.856167L340.8189 49.856167C340.8189 35.397903 352.53964 23.677166 366.9979 23.677166L593.00214 23.677166C599.9452 23.677166 606.60394 26.435303 611.5135 31.344818C616.423 36.254333 619.1811 42.913063 619.1811 49.856167L619.1811 154.56903C619.1811 169.0273 607.4604 180.74803 593.00214 180.74803L366.9979 180.74803C352.53964 180.74803 340.8189 169.0273 340.8189 154.56903Z" fill-rule="nonzero" fill="#f3f3f3" stroke="#cccccc" stroke-width="2.0" stroke-linejoin="round" stroke-linecap="butt"></path><path d="M388.41797 83.228226L391.9961 82.915726Q392.2461 85.071976 393.17578 86.446976Q394.10547 87.821976 396.0586 88.67354Q398.01172 89.5251 400.44922 89.5251Q402.6211 89.5251 404.27734 88.87666Q405.9336 88.228226 406.7461 87.103226Q407.5586 85.978226 407.5586 84.6501Q407.5586 83.30635 406.77734 82.29854Q405.9961 81.290726 404.19922 80.61885Q403.04297 80.165726 399.09766 79.22041Q395.15234 78.2751 393.57422 77.43135Q391.52734 76.353226 390.51953 74.759476Q389.51172 73.165726 389.51172 71.196976Q389.51172 69.0251 390.7461 67.14229Q391.98047 65.259476 394.33984 64.28291Q396.69922 63.30635 399.58984 63.30635Q402.77734 63.30635 405.20703 64.32979Q407.63672 65.353226 408.94922 67.34541Q410.26172 69.3376 410.35547 71.86885L406.71484 72.134476Q406.4336 69.415726 404.73828 68.03291Q403.04297 66.6501 399.7461 66.6501Q396.3086 66.6501 394.73828 67.90791Q393.16797 69.165726 393.16797 70.946976Q393.16797 72.49385 394.27734 73.478226Q395.3711 74.478226 399.98828 75.5251Q404.60547 76.571976 406.32422 77.353226Q408.82422 78.509476 410.01953 80.2751Q411.21484 82.040726 411.21484 84.3376Q411.21484 86.634476 409.90234 88.6501Q408.58984 90.665726 406.14453 91.790726Q403.69922 92.915726 400.6211 92.915726Q396.7461 92.915726 394.11328 91.78291Q391.48047 90.6501 389.98828 88.37666Q388.4961 86.103226 388.41797 83.228226ZM414.6289 82.05635Q414.6289 76.290726 417.83203 73.5251Q420.5039 71.2126 424.36328 71.2126Q428.6289 71.2126 431.34766 74.01729Q434.0664 76.821976 434.0664 81.759476Q434.0664 85.7751 432.86328 88.06416Q431.66016 90.353226 429.36328 91.62666Q427.0664 92.9001 424.36328 92.9001Q420.0039 92.9001 417.3164 90.103226Q414.6289 87.30635 414.6289 82.05635ZM418.23828 82.05635Q418.23828 86.040726 419.98047 88.0251Q421.72266 90.009476 424.36328 90.009476Q426.97266 90.009476 428.71484 88.01729Q430.45703 86.0251 430.45703 81.946976Q430.45703 78.0876 428.70703 76.11104Q426.95703 74.134476 424.36328 74.134476Q421.72266 74.134476 419.98047 76.103226Q418.23828 78.071976 418.23828 82.05635ZM451.71875 84.8376L455.17188 85.2751Q454.60938 88.853226 452.27344 90.87666Q449.9375 92.9001 446.54688 92.9001Q442.28125 92.9001 439.6953 90.11885Q437.10938 87.3376 437.10938 82.134476Q437.10938 78.7751 438.22656 76.259476Q439.34375 73.74385 441.6172 72.478226Q443.89062 71.2126 446.5625 71.2126Q449.9375 71.2126 452.08594 72.92354Q454.23438 74.634476 454.84375 77.7751L451.42188 78.30635Q450.9375 76.2126 449.6953 75.15791Q448.45312 74.103226 446.70312 74.103226Q444.04688 74.103226 442.3828 76.009476Q440.71875 77.915726 440.71875 82.040726Q440.71875 86.2126 442.3203 88.11104Q443.92188 90.009476 446.5 90.009476Q448.57812 90.009476 449.96094 88.73604Q451.34375 87.4626 451.71875 84.8376ZM458.20312 92.43135L458.20312 63.790726L461.71875 63.790726L461.71875 80.11885L470.04688 71.68135L474.59375 71.68135L466.65625 79.384476L475.39062 92.43135L471.0625 92.43135L464.20312 81.821976L461.71875 84.2126L461.71875 92.43135L458.20312 92.43135ZM492.39062 85.74385L496.01562 86.196976Q495.15625 89.384476 492.83594 91.14229Q490.51562 92.9001 486.89062 92.9001Q482.34375 92.9001 479.6797 90.09541Q477.01562 87.290726 477.01562 82.228226Q477.01562 76.99385 479.71094 74.103226Q482.40625 71.2126 486.70312 71.2126Q490.85938 71.2126 493.5 74.04854Q496.14062 76.884476 496.14062 82.0251Q496.14062 82.3376 496.10938 82.9626L480.64062 82.9626Q480.84375 86.36885 482.57812 88.18916Q484.3125 90.009476 486.92188 90.009476Q488.84375 90.009476 490.21094 88.99385Q491.57812 87.978226 492.39062 85.74385ZM480.84375 80.071976L492.42188 80.071976Q492.1875 77.446976 491.09375 76.134476Q489.42188 74.103226 486.73438 74.103226Q484.3125 74.103226 482.66406 75.728226Q481.01562 77.353226 480.84375 80.071976ZM508.10547 89.290726L508.6211 92.384476Q507.13672 92.7126 505.96484 92.7126Q504.04297 92.7126 502.98828 92.103226Q501.9336 91.49385 501.5039 90.509476Q501.07422 89.5251 501.07422 86.353226L501.07422 74.415726L498.4961 74.415726L498.4961 71.68135L501.07422 71.68135L501.07422 66.55635L504.57422 64.446976L504.57422 71.68135L508.10547 71.68135L508.10547 74.415726L504.57422 74.415726L504.57422 86.55635Q504.57422 88.05635 504.76172 88.48604Q504.94922 88.915726 505.36328 89.165726Q505.77734 89.415726 506.5586 89.415726Q507.15234 89.415726 508.10547 89.290726ZM512.5469 92.43135L512.5469 88.43135L516.5469 88.43135L516.5469 92.43135L512.5469 92.43135ZM522.6758 67.8376L522.6758 63.790726L526.1914 63.790726L526.1914 67.8376L522.6758 67.8376ZM522.6758 92.43135L522.6758 71.68135L526.1914 71.68135L526.1914 92.43135L522.6758 92.43135ZM530.2344 82.05635Q530.2344 76.290726 533.4375 73.5251Q536.1094 71.2126 539.96875 71.2126Q544.2344 71.2126 546.9531 74.01729Q549.6719 76.821976 549.6719 81.759476Q549.6719 85.7751 548.46875 88.06416Q547.2656 90.353226 544.96875 91.62666Q542.6719 92.9001 539.96875 92.9001Q535.6094 92.9001 532.9219 90.103226Q530.2344 87.30635 530.2344 82.05635ZM533.84375 82.05635Q533.84375 86.040726 535.58594 88.0251Q537.3281 90.009476 539.96875 90.009476Q542.5781 90.009476 544.3203 88.01729Q546.0625 86.0251 546.0625 81.946976Q546.0625 78.0876 544.3125 76.11104Q542.5625 74.134476 539.96875 74.134476Q537.3281 74.134476 535.58594 76.103226Q533.84375 78.071976 533.84375 82.05635ZM562.2656 92.915726L570.5625 63.30635L573.375 63.30635L565.09375 92.915726L562.2656 92.915726Z" fill-rule="nonzero" fill="#434343"></path><path d="M379.88867 138.43135L390.88867 109.790726L394.9668 109.790726L406.68555 138.43135L402.37305 138.43135L399.0293 129.75948L387.06055 129.75948L383.91992 138.43135L379.88867 138.43135ZM388.1543 126.665726L397.85742 126.665726L394.87305 118.74385Q393.51367 115.134476 392.8418 112.80635Q392.29492 115.55635 391.29492 118.2751L388.1543 126.665726ZM409.27148 146.38448L409.27148 117.68135L412.4746 117.68135L412.4746 120.384476Q413.5996 118.80635 415.0293 118.009476Q416.45898 117.2126 418.49023 117.2126Q421.14648 117.2126 423.17773 118.57979Q425.20898 119.946976 426.24023 122.43916Q427.27148 124.93135 427.27148 127.9001Q427.27148 131.0876 426.13086 133.63448Q424.99023 136.18135 422.81055 137.54073Q420.63086 138.9001 418.24023 138.9001Q416.4746 138.9001 415.07617 138.15791Q413.67773 137.41573 412.7871 136.2751L412.7871 146.38448L409.27148 146.38448ZM412.45898 128.18135Q412.45898 132.18135 414.07617 134.09541Q415.69336 136.00948 418.00586 136.00948Q420.3496 136.00948 422.01367 134.0251Q423.67773 132.04073 423.67773 127.884476Q423.67773 123.915726 422.05273 121.946976Q420.42773 119.978226 418.1621 119.978226Q415.9121 119.978226 414.18555 122.071976Q412.45898 124.165726 412.45898 128.18135ZM431.51758 146.38448L431.51758 117.68135L434.7207 117.68135L434.7207 120.384476Q435.8457 118.80635 437.2754 118.009476Q438.70508 117.2126 440.73633 117.2126Q443.39258 117.2126 445.42383 118.57979Q447.45508 119.946976 448.48633 122.43916Q449.51758 124.93135 449.51758 127.9001Q449.51758 131.0876 448.37695 133.63448Q447.23633 136.18135 445.05664 137.54073Q442.87695 138.9001 440.48633 138.9001Q438.7207 138.9001 437.32227 138.15791Q435.92383 137.41573 435.0332 136.2751L435.0332 146.38448L431.51758 146.38448ZM434.70508 128.18135Q434.70508 132.18135 436.32227 134.09541Q437.93945 136.00948 440.25195 136.00948Q442.5957 136.00948 444.25977 134.0251Q445.92383 132.04073 445.92383 127.884476Q445.92383 123.915726 444.29883 121.946976Q442.67383 119.978226 440.4082 119.978226Q438.1582 119.978226 436.43164 122.071976Q434.70508 124.165726 434.70508 128.18135ZM464.0332 129.22823L467.61133 128.91573Q467.86133 131.07198 468.79102 132.44698Q469.7207 133.82198 471.67383 134.67354Q473.62695 135.5251 476.06445 135.5251Q478.23633 135.5251 479.89258 134.87666Q481.54883 134.22823 482.36133 133.10323Q483.17383 131.97823 483.17383 130.6501Q483.17383 129.30635 482.39258 128.29854Q481.61133 127.290726 479.81445 126.61885Q478.6582 126.165726 474.7129 125.22041Q470.76758 124.2751 469.18945 123.43135Q467.14258 122.353226 466.13477 120.759476Q465.12695 119.165726 465.12695 117.196976Q465.12695 115.0251 466.36133 113.14229Q467.5957 111.259476 469.95508 110.28291Q472.31445 109.30635 475.20508 109.30635Q478.39258 109.30635 480.82227 110.32979Q483.25195 111.353226 484.56445 113.34541Q485.87695 115.3376 485.9707 117.86885L482.33008 118.134476Q482.04883 115.415726 480.35352 114.03291Q478.6582 112.6501 475.36133 112.6501Q471.92383 112.6501 470.35352 113.90791Q468.7832 115.165726 468.7832 116.946976Q468.7832 118.49385 469.89258 119.478226Q470.98633 120.478226 475.60352 121.5251Q480.2207 122.571976 481.93945 123.353226Q484.43945 124.509476 485.63477 126.2751Q486.83008 128.04073 486.83008 130.3376Q486.83008 132.63448 485.51758 134.6501Q484.20508 136.66573 481.75977 137.79073Q479.31445 138.91573 476.23633 138.91573Q472.36133 138.91573 469.72852 137.78291Q467.0957 136.6501 465.60352 134.37666Q464.11133 132.10323 464.0332 129.22823ZM505.75977 131.74385L509.38477 132.19698Q508.5254 135.38448 506.20508 137.14229Q503.88477 138.9001 500.25977 138.9001Q495.7129 138.9001 493.04883 136.09541Q490.38477 133.29073 490.38477 128.22823Q490.38477 122.99385 493.08008 120.103226Q495.7754 117.2126 500.07227 117.2126Q504.22852 117.2126 506.86914 120.04854Q509.50977 122.884476 509.50977 128.0251Q509.50977 128.3376 509.47852 128.9626L494.00977 128.9626Q494.2129 132.36885 495.94727 134.18916Q497.68164 136.00948 500.29102 136.00948Q502.2129 136.00948 503.58008 134.99385Q504.94727 133.97823 505.75977 131.74385ZM494.2129 126.071976L505.79102 126.071976Q505.55664 123.446976 504.4629 122.134476Q502.79102 120.103226 500.10352 120.103226Q497.68164 120.103226 496.0332 121.728226Q494.38477 123.353226 494.2129 126.071976ZM513.75586 138.43135L513.75586 117.68135L516.92773 117.68135L516.92773 120.8376Q518.13086 118.61885 519.1621 117.915726Q520.19336 117.2126 521.4121 117.2126Q523.19336 117.2126 525.0371 118.353226L523.81836 121.61885Q522.5371 120.853226 521.24023 120.853226Q520.084 120.853226 519.1699 121.54854Q518.25586 122.24385 517.86523 123.4626Q517.2715 125.3376 517.2715 127.571976L517.2715 138.43135L513.75586 138.43135ZM532.8887 138.43135L524.99805 117.68135L528.7012 117.68135L533.1543 130.10323Q533.87305 132.11885 534.4824 134.29073Q534.9512 132.6501 535.7949 130.3376L540.4043 117.68135L544.0137 117.68135L536.1699 138.43135L532.8887 138.43135ZM561.3262 131.74385L564.9512 132.19698Q564.0918 135.38448 561.7715 137.14229Q559.4512 138.9001 555.8262 138.9001Q551.2793 138.9001 548.61523 136.09541Q545.9512 133.29073 545.9512 128.22823Q545.9512 122.99385 548.6465 120.103226Q551.3418 117.2126 555.6387 117.2126Q559.7949 117.2126 562.43555 120.04854Q565.0762 122.884476 565.0762 128.0251Q565.0762 128.3376 565.0449 128.9626L549.5762 128.9626Q549.7793 132.36885 551.5137 134.18916Q553.24805 136.00948 555.8574 136.00948Q557.7793 136.00948 559.1465 134.99385Q560.5137 133.97823 561.3262 131.74385ZM549.7793 126.071976L561.3574 126.071976Q561.12305 123.446976 560.0293 122.134476Q558.3574 120.103226 555.6699 120.103226Q553.24805 120.103226 551.5996 121.728226Q549.9512 123.353226 549.7793 126.071976ZM569.32227 138.43135L569.32227 117.68135L572.49414 117.68135L572.49414 120.8376Q573.69727 118.61885 574.7285 117.915726Q575.75977 117.2126 576.9785 117.2126Q578.75977 117.2126 580.6035 118.353226L579.38477 121.61885Q578.1035 120.853226 576.80664 120.853226Q575.6504 120.853226 574.7363 121.54854Q573.82227 122.24385 573.43164 123.4626Q572.8379 125.3376 572.8379 127.571976L572.8379 138.43135L569.32227 138.43135Z" fill-rule="nonzero" fill="#434343"></path><path d="M640.94226 132.35486L640.94226 132.35486C640.94226 117.89659 652.663 106.17585 667.1213 106.17585L893.1255 106.17585C900.0686 106.17585 906.7273 108.93399 911.63684 113.843506C916.5463 118.75302 919.30444 125.41175 919.30444 132.35486L919.30444 237.06772C919.30444 251.52599 907.58374 263.2467 893.1255 263.2467L667.1213 263.2467C652.663 263.2467 640.94226 251.52599 640.94226 237.06772Z" fill-rule="nonzero" fill="#f3f3f3" stroke="#cccccc" stroke-width="2.0" stroke-linejoin="round" stroke-linecap="butt"></path><path d="M688.5413 165.72691L692.11945 165.41441Q692.36945 167.57066 693.29913 168.94566Q694.2288 170.32066 696.18195 171.17223Q698.1351 172.02379 700.5726 172.02379Q702.74445 172.02379 704.4007 171.37535Q706.05695 170.72691 706.86945 169.60191Q707.68195 168.47691 707.68195 167.14879Q707.68195 165.80504 706.9007 164.79723Q706.11945 163.78941 704.3226 163.11754Q703.1663 162.66441 699.221 161.7191Q695.2757 160.77379 693.6976 159.93004Q691.6507 158.85191 690.6429 157.25816Q689.6351 155.66441 689.6351 153.69566Q689.6351 151.52379 690.86945 149.64098Q692.1038 147.75816 694.4632 146.7816Q696.8226 145.80504 699.7132 145.80504Q702.9007 145.80504 705.3304 146.82848Q707.7601 147.85191 709.0726 149.8441Q710.3851 151.83629 710.4788 154.36754L706.8382 154.63316Q706.55695 151.91441 704.86163 150.5316Q703.1663 149.14879 699.86945 149.14879Q696.43195 149.14879 694.86163 150.4066Q693.2913 151.66441 693.2913 153.44566Q693.2913 154.99254 694.4007 155.97691Q695.49445 156.97691 700.11163 158.02379Q704.7288 159.07066 706.4476 159.85191Q708.9476 161.00816 710.1429 162.77379Q711.3382 164.53941 711.3382 166.83629Q711.3382 169.13316 710.0257 171.14879Q708.7132 173.16441 706.2679 174.28941Q703.8226 175.41441 700.74445 175.41441Q696.86945 175.41441 694.23663 174.2816Q691.6038 173.14879 690.11163 170.87535Q688.61945 168.60191 688.5413 165.72691ZM714.75226 164.55504Q714.75226 158.78941 717.9554 156.02379Q720.62726 153.71129 724.48663 153.71129Q728.75226 153.71129 731.471 156.51598Q734.18976 159.32066 734.18976 164.25816Q734.18976 168.27379 732.98663 170.56285Q731.7835 172.85191 729.48663 174.12535Q727.18976 175.39879 724.48663 175.39879Q720.12726 175.39879 717.43976 172.60191Q714.75226 169.80504 714.75226 164.55504ZM718.36163 164.55504Q718.36163 168.53941 720.1038 170.52379Q721.846 172.50816 724.48663 172.50816Q727.096 172.50816 728.8382 170.51598Q730.5804 168.52379 730.5804 164.44566Q730.5804 160.58629 728.8304 158.60973Q727.0804 156.63316 724.48663 156.63316Q721.846 156.63316 720.1038 158.60191Q718.36163 160.57066 718.36163 164.55504ZM751.8421 167.33629L755.2952 167.77379Q754.7327 171.35191 752.3968 173.37535Q750.06085 175.39879 746.6702 175.39879Q742.4046 175.39879 739.81866 172.61754Q737.2327 169.83629 737.2327 164.63316Q737.2327 161.27379 738.3499 158.75816Q739.4671 156.24254 741.74054 154.97691Q744.014 153.71129 746.68585 153.71129Q750.06085 153.71129 752.2093 155.42223Q754.3577 157.13316 754.9671 160.27379L751.5452 160.80504Q751.06085 158.71129 749.81866 157.6566Q748.5765 156.60191 746.8265 156.60191Q744.1702 156.60191 742.50616 158.50816Q740.8421 160.41441 740.8421 164.53941Q740.8421 168.71129 742.44366 170.60973Q744.0452 172.50816 746.62335 172.50816Q748.7015 172.50816 750.0843 171.23473Q751.4671 169.96129 751.8421 167.33629ZM758.3265 174.93004L758.3265 146.28941L761.8421 146.28941L761.8421 162.61754L770.1702 154.18004L774.7171 154.18004L766.7796 161.88316L775.514 174.93004L771.18585 174.93004L764.3265 164.32066L761.8421 166.71129L761.8421 174.93004L758.3265 174.93004ZM792.514 168.24254L796.139 168.69566Q795.2796 171.88316 792.9593 173.64098Q790.639 175.39879 787.014 175.39879Q782.4671 175.39879 779.80304 172.5941Q777.139 169.78941 777.139 164.72691Q777.139 159.49254 779.8343 156.60191Q782.5296 153.71129 786.8265 153.71129Q790.9827 153.71129 793.62335 156.54723Q796.264 159.38316 796.264 164.52379Q796.264 164.83629 796.2327 165.46129L780.764 165.46129Q780.9671 168.86754 782.7015 170.68785Q784.43585 172.50816 787.0452 172.50816Q788.9671 172.50816 790.3343 171.49254Q791.7015 170.47691 792.514 168.24254ZM780.9671 162.57066L792.5452 162.57066Q792.31085 159.94566 791.2171 158.63316Q789.5452 156.60191 786.8577 156.60191Q784.43585 156.60191 782.7874 158.22691Q781.139 159.85191 780.9671 162.57066ZM808.2288 171.78941L808.74445 174.88316Q807.2601 175.21129 806.0882 175.21129Q804.1663 175.21129 803.11163 174.60191Q802.05695 173.99254 801.62726 173.00816Q801.1976 172.02379 801.1976 168.85191L801.1976 156.91441L798.61945 156.91441L798.61945 154.18004L801.1976 154.18004L801.1976 149.05504L804.6976 146.94566L804.6976 154.18004L808.2288 154.18004L808.2288 156.91441L804.6976 156.91441L804.6976 169.05504Q804.6976 170.55504 804.8851 170.98473Q805.0726 171.41441 805.48663 171.66441Q805.9007 171.91441 806.68195 171.91441Q807.2757 171.91441 808.2288 171.78941ZM812.6702 174.93004L812.6702 170.93004L816.6702 170.93004L816.6702 174.93004L812.6702 174.93004ZM822.79913 150.33629L822.79913 146.28941L826.31476 146.28941L826.31476 150.33629L822.79913 150.33629ZM822.79913 174.93004L822.79913 154.18004L826.31476 154.18004L826.31476 174.93004L822.79913 174.93004ZM830.3577 164.55504Q830.3577 158.78941 833.56085 156.02379Q836.2327 153.71129 840.0921 153.71129Q844.3577 153.71129 847.0765 156.51598Q849.7952 159.32066 849.7952 164.25816Q849.7952 168.27379 848.5921 170.56285Q847.389 172.85191 845.0921 174.12535Q842.7952 175.39879 840.0921 175.39879Q835.7327 175.39879 833.0452 172.60191Q830.3577 169.80504 830.3577 164.55504ZM833.9671 164.55504Q833.9671 168.53941 835.7093 170.52379Q837.4515 172.50816 840.0921 172.50816Q842.7015 172.50816 844.44366 170.51598Q846.18585 168.52379 846.18585 164.44566Q846.18585 160.58629 844.43585 158.60973Q842.68585 156.63316 840.0921 156.63316Q837.4515 156.63316 835.7093 158.60191Q833.9671 160.57066 833.9671 164.55504ZM862.389 175.41441L870.68585 145.80504L873.49835 145.80504L865.2171 175.41441L862.389 175.41441Z" fill-rule="nonzero" fill="#434343"></path><path d="M680.012 220.93004L691.012 192.28941L695.09015 192.28941L706.8089 220.93004L702.4964 220.93004L699.15265 212.25816L687.1839 212.25816L684.0433 220.93004L680.012 220.93004ZM688.27765 209.16441L697.9808 209.16441L694.9964 201.24254Q693.637 197.63316 692.96515 195.30504Q692.4183 198.05504 691.4183 200.77379L688.27765 209.16441ZM709.39484 228.88316L709.39484 200.18004L712.59796 200.18004L712.59796 202.88316Q713.72296 201.30504 715.15265 200.50816Q716.58234 199.71129 718.6136 199.71129Q721.26984 199.71129 723.3011 201.07848Q725.33234 202.44566 726.3636 204.93785Q727.39484 207.43004 727.39484 210.39879Q727.39484 213.58629 726.2542 216.13316Q725.1136 218.68004 722.9339 220.03941Q720.7542 221.39879 718.3636 221.39879Q716.59796 221.39879 715.1995 220.6566Q713.8011 219.91441 712.91046 218.77379L712.91046 228.88316L709.39484 228.88316ZM712.58234 210.68004Q712.58234 214.68004 714.1995 216.5941Q715.8167 218.50816 718.1292 218.50816Q720.47296 218.50816 722.137 216.52379Q723.8011 214.53941 723.8011 210.38316Q723.8011 206.41441 722.1761 204.44566Q720.5511 202.47691 718.28546 202.47691Q716.03546 202.47691 714.3089 204.57066Q712.58234 206.66441 712.58234 210.68004ZM731.6409 228.88316L731.6409 200.18004L734.84406 200.18004L734.84406 202.88316Q735.96906 201.30504 737.39874 200.50816Q738.8284 199.71129 740.8597 199.71129Q743.5159 199.71129 745.5472 201.07848Q747.5784 202.44566 748.6097 204.93785Q749.6409 207.43004 749.6409 210.39879Q749.6409 213.58629 748.5003 216.13316Q747.3597 218.68004 745.18 220.03941Q743.0003 221.39879 740.6097 221.39879Q738.84406 221.39879 737.4456 220.6566Q736.0472 219.91441 735.15656 218.77379L735.15656 228.88316L731.6409 228.88316ZM734.8284 210.68004Q734.8284 214.68004 736.4456 216.5941Q738.0628 218.50816 740.3753 218.50816Q742.71906 218.50816 744.3831 216.52379Q746.0472 214.53941 746.0472 210.38316Q746.0472 206.41441 744.4222 204.44566Q742.7972 202.47691 740.53156 202.47691Q738.28156 202.47691 736.555 204.57066Q734.8284 206.66441 734.8284 210.68004ZM764.15656 211.72691L767.7347 211.41441Q767.9847 213.57066 768.91437 214.94566Q769.84406 216.32066 771.7972 217.17223Q773.7503 218.02379 776.1878 218.02379Q778.3597 218.02379 780.0159 217.37535Q781.6722 216.72691 782.4847 215.60191Q783.2972 214.47691 783.2972 213.14879Q783.2972 211.80504 782.5159 210.79723Q781.7347 209.78941 779.9378 209.11754Q778.78156 208.66441 774.83624 207.7191Q770.8909 206.77379 769.3128 205.93004Q767.2659 204.85191 766.2581 203.25816Q765.2503 201.66441 765.2503 199.69566Q765.2503 197.52379 766.4847 195.64098Q767.71906 193.75816 770.0784 192.7816Q772.4378 191.80504 775.3284 191.80504Q778.5159 191.80504 780.9456 192.82848Q783.3753 193.85191 784.6878 195.8441Q786.0003 197.83629 786.09406 200.36754L782.4534 200.63316Q782.1722 197.91441 780.47687 196.5316Q778.78156 195.14879 775.4847 195.14879Q772.0472 195.14879 770.47687 196.4066Q768.90656 197.66441 768.90656 199.44566Q768.90656 200.99254 770.0159 201.97691Q771.1097 202.97691 775.72687 204.02379Q780.34406 205.07066 782.0628 205.85191Q784.5628 207.00816 785.7581 208.77379Q786.9534 210.53941 786.9534 212.83629Q786.9534 215.13316 785.6409 217.14879Q784.3284 219.16441 781.8831 220.28941Q779.4378 221.41441 776.3597 221.41441Q772.4847 221.41441 769.85187 220.2816Q767.21906 219.14879 765.72687 216.87535Q764.2347 214.60191 764.15656 211.72691ZM805.8831 214.24254L809.5081 214.69566Q808.64874 217.88316 806.3284 219.64098Q804.0081 221.39879 800.3831 221.39879Q795.83624 221.39879 793.1722 218.5941Q790.5081 215.78941 790.5081 210.72691Q790.5081 205.49254 793.2034 202.60191Q795.89874 199.71129 800.1956 199.71129Q804.35187 199.71129 806.9925 202.54723Q809.6331 205.38316 809.6331 210.52379Q809.6331 210.83629 809.60187 211.46129L794.1331 211.46129Q794.33624 214.86754 796.0706 216.68785Q797.805 218.50816 800.41437 218.50816Q802.33624 218.50816 803.7034 217.49254Q805.0706 216.47691 805.8831 214.24254ZM794.33624 208.57066L805.91437 208.57066Q805.68 205.94566 804.58624 204.63316Q802.91437 202.60191 800.22687 202.60191Q797.805 202.60191 796.15656 204.22691Q794.5081 205.85191 794.33624 208.57066ZM813.8792 220.93004L813.8792 200.18004L817.0511 200.18004L817.0511 203.33629Q818.2542 201.11754 819.28546 200.41441Q820.3167 199.71129 821.53546 199.71129Q823.3167 199.71129 825.16046 200.85191L823.9417 204.11754Q822.66046 203.35191 821.3636 203.35191Q820.20734 203.35191 819.2933 204.04723Q818.3792 204.74254 817.9886 205.96129Q817.39484 207.83629 817.39484 210.07066L817.39484 220.93004L813.8792 220.93004ZM833.012 220.93004L825.1214 200.18004L828.8245 200.18004L833.27765 212.60191Q833.9964 214.61754 834.6058 216.78941Q835.0745 215.14879 835.9183 212.83629L840.52765 200.18004L844.137 200.18004L836.2933 220.93004L833.012 220.93004ZM861.4495 214.24254L865.0745 214.69566Q864.21515 217.88316 861.89484 219.64098Q859.5745 221.39879 855.9495 221.39879Q851.40265 221.39879 848.7386 218.5941Q846.0745 215.78941 846.0745 210.72691Q846.0745 205.49254 848.76984 202.60191Q851.46515 199.71129 855.762 199.71129Q859.9183 199.71129 862.5589 202.54723Q865.1995 205.38316 865.1995 210.52379Q865.1995 210.83629 865.1683 211.46129L849.6995 211.46129Q849.90265 214.86754 851.637 216.68785Q853.3714 218.50816 855.9808 218.50816Q857.90265 218.50816 859.26984 217.49254Q860.637 216.47691 861.4495 214.24254ZM849.90265 208.57066L861.4808 208.57066Q861.2464 205.94566 860.15265 204.63316Q858.4808 202.60191 855.7933 202.60191Q853.3714 202.60191 851.72296 204.22691Q850.0745 205.85191 849.90265 208.57066ZM869.4456 220.93004L869.4456 200.18004L872.6175 200.18004L872.6175 203.33629Q873.8206 201.11754 874.85187 200.41441Q875.8831 199.71129 877.10187 199.71129Q878.8831 199.71129 880.72687 200.85191L879.5081 204.11754Q878.22687 203.35191 876.93 203.35191Q875.77374 203.35191 874.8597 204.04723Q873.9456 204.74254 873.555 205.96129Q872.96124 207.83629 872.96124 210.07066L872.96124 220.93004L869.4456 220.93004Z" fill-rule="nonzero" fill="#434343"></path><path d="M33.989502 132.35486L33.989502 132.35486C33.989502 117.89659 45.71024 106.17585 60.168503 106.17585L286.17273 106.17585C293.1158 106.17585 299.77454 108.93399 304.68405 113.843506C309.59357 118.75302 312.3517 125.41175 312.3517 132.35486L312.3517 237.06772C312.3517 251.52599 300.63098 263.2467 286.17273 263.2467L60.168503 263.2467C45.71024 263.2467 33.989502 251.52599 33.989502 237.06772Z" fill-rule="nonzero" fill="#f3f3f3" stroke="#cccccc" stroke-width="2.0" stroke-linejoin="round" stroke-linecap="butt"></path><path d="M81.58858 165.72691L85.1667 165.41441Q85.4167 167.57066 86.34639 168.94566Q87.27608 170.32066 89.2292 171.17223Q91.18233 172.02379 93.61983 172.02379Q95.7917 172.02379 97.44795 171.37535Q99.1042 170.72691 99.9167 169.60191Q100.7292 168.47691 100.7292 167.14879Q100.7292 165.80504 99.94795 164.79723Q99.1667 163.78941 97.36983 163.11754Q96.21358 162.66441 92.268265 161.7191Q88.32295 160.77379 86.74483 159.93004Q84.69795 158.85191 83.69014 157.25816Q82.68233 155.66441 82.68233 153.69566Q82.68233 151.52379 83.9167 149.64098Q85.15108 147.75816 87.51045 146.7816Q89.86983 145.80504 92.76045 145.80504Q95.94795 145.80504 98.37764 146.82848Q100.80733 147.85191 102.11983 149.8441Q103.43233 151.83629 103.52608 154.36754L99.88545 154.63316Q99.6042 151.91441 97.90889 150.5316Q96.21358 149.14879 92.9167 149.14879Q89.4792 149.14879 87.90889 150.4066Q86.33858 151.66441 86.33858 153.44566Q86.33858 154.99254 87.44795 155.97691Q88.5417 156.97691 93.15889 158.02379Q97.77608 159.07066 99.49483 159.85191Q101.99483 161.00816 103.19014 162.77379Q104.38545 164.53941 104.38545 166.83629Q104.38545 169.13316 103.07295 171.14879Q101.76045 173.16441 99.31514 174.28941Q96.86983 175.41441 93.7917 175.41441Q89.9167 175.41441 87.28389 174.2816Q84.65108 173.14879 83.15889 170.87535Q81.6667 168.60191 81.58858 165.72691ZM107.799515 164.55504Q107.799515 158.78941 111.00264 156.02379Q113.674515 153.71129 117.53389 153.71129Q121.799515 153.71129 124.518265 156.51598Q127.237015 159.32066 127.237015 164.25816Q127.237015 168.27379 126.03389 170.56285Q124.830765 172.85191 122.53389 174.12535Q120.237015 175.39879 117.53389 175.39879Q113.174515 175.39879 110.487015 172.60191Q107.799515 169.80504 107.799515 164.55504ZM111.40889 164.55504Q111.40889 168.53941 113.15108 170.52379Q114.893265 172.50816 117.53389 172.50816Q120.143265 172.50816 121.88545 170.51598Q123.62764 168.52379 123.62764 164.44566Q123.62764 160.58629 121.87764 158.60973Q120.12764 156.63316 117.53389 156.63316Q114.893265 156.63316 113.15108 158.60191Q111.40889 160.57066 111.40889 164.55504ZM144.88936 167.33629L148.34248 167.77379Q147.77998 171.35191 145.44405 173.37535Q143.10811 175.39879 139.71748 175.39879Q135.45186 175.39879 132.86592 172.61754Q130.27998 169.83629 130.27998 164.63316Q130.27998 161.27379 131.39717 158.75816Q132.51436 156.24254 134.7878 154.97691Q137.06123 153.71129 139.73311 153.71129Q143.10811 153.71129 145.25655 155.42223Q147.40498 157.13316 148.01436 160.27379L144.59248 160.80504Q144.10811 158.71129 142.86592 157.6566Q141.62373 156.60191 139.87373 156.60191Q137.21748 156.60191 135.55342 158.50816Q133.88936 160.41441 133.88936 164.53941Q133.88936 168.71129 135.49092 170.60973Q137.09248 172.50816 139.67061 172.50816Q141.74873 172.50816 143.13155 171.23473Q144.51436 169.96129 144.88936 167.33629ZM151.37373 174.93004L151.37373 146.28941L154.88936 146.28941L154.88936 162.61754L163.21748 154.18004L167.76436 154.18004L159.82686 161.88316L168.56123 174.93004L164.23311 174.93004L157.37373 164.32066L154.88936 166.71129L154.88936 174.93004L151.37373 174.93004ZM185.56125 168.24254L189.18625 168.69566Q188.32687 171.88316 186.00656 173.64098Q183.68625 175.39879 180.06125 175.39879Q175.51437 175.39879 172.85031 172.5941Q170.18625 169.78941 170.18625 164.72691Q170.18625 159.49254 172.88156 156.60191Q175.57687 153.71129 179.87375 153.71129Q184.03 153.71129 186.67062 156.54723Q189.31125 159.38316 189.31125 164.52379Q189.31125 164.83629 189.28 165.46129L173.81125 165.46129Q174.01437 168.86754 175.74875 170.68785Q177.48312 172.50816 180.0925 172.50816Q182.01437 172.50816 183.38156 171.49254Q184.74875 170.47691 185.56125 168.24254ZM174.01437 162.57066L185.5925 162.57066Q185.35812 159.94566 184.26437 158.63316Q182.5925 156.60191 179.905 156.60191Q177.48312 156.60191 175.83469 158.22691Q174.18625 159.85191 174.01437 162.57066ZM201.2761 171.78941L201.79172 174.88316Q200.30734 175.21129 199.13547 175.21129Q197.2136 175.21129 196.1589 174.60191Q195.10422 173.99254 194.67453 173.00816Q194.24484 172.02379 194.24484 168.85191L194.24484 156.91441L191.66672 156.91441L191.66672 154.18004L194.24484 154.18004L194.24484 149.05504L197.74484 146.94566L197.74484 154.18004L201.2761 154.18004L201.2761 156.91441L197.74484 156.91441L197.74484 169.05504Q197.74484 170.55504 197.93234 170.98473Q198.11984 171.41441 198.5339 171.66441Q198.94797 171.91441 199.72922 171.91441Q200.32297 171.91441 201.2761 171.78941ZM205.7175 174.93004L205.7175 170.93004L209.7175 170.93004L209.7175 174.93004L205.7175 174.93004ZM215.8464 150.33629L215.8464 146.28941L219.36203 146.28941L219.36203 150.33629L215.8464 150.33629ZM215.8464 174.93004L215.8464 154.18004L219.36203 154.18004L219.36203 174.93004L215.8464 174.93004ZM223.405 164.55504Q223.405 158.78941 226.60812 156.02379Q229.28 153.71129 233.13937 153.71129Q237.405 153.71129 240.12375 156.51598Q242.8425 159.32066 242.8425 164.25816Q242.8425 168.27379 241.63937 170.56285Q240.43625 172.85191 238.13937 174.12535Q235.8425 175.39879 233.13937 175.39879Q228.78 175.39879 226.0925 172.60191Q223.405 169.80504 223.405 164.55504ZM227.01437 164.55504Q227.01437 168.53941 228.75656 170.52379Q230.49875 172.50816 233.13937 172.50816Q235.74875 172.50816 237.49094 170.51598Q239.23312 168.52379 239.23312 164.44566Q239.23312 160.58629 237.48312 158.60973Q235.73312 156.63316 233.13937 156.63316Q230.49875 156.63316 228.75656 158.60191Q227.01437 160.57066 227.01437 164.55504ZM255.43625 175.41441L263.73312 145.80504L266.54562 145.80504L258.26437 175.41441L255.43625 175.41441Z" fill-rule="nonzero" fill="#434343"></path><path d="M73.05928 220.93004L84.05928 192.28941L88.137405 192.28941L99.856155 220.93004L95.543655 220.93004L92.199905 212.25816L80.231155 212.25816L77.09053 220.93004L73.05928 220.93004ZM81.324905 209.16441L91.02803 209.16441L88.043655 201.24254Q86.68428 197.63316 86.012405 195.30504Q85.46553 198.05504 84.46553 200.77379L81.324905 209.16441ZM102.44209 228.88316L102.44209 200.18004L105.64522 200.18004L105.64522 202.88316Q106.77022 201.30504 108.199905 200.50816Q109.62959 199.71129 111.66084 199.71129Q114.31709 199.71129 116.34834 201.07848Q118.37959 202.44566 119.41084 204.93785Q120.44209 207.43004 120.44209 210.39879Q120.44209 213.58629 119.30147 216.13316Q118.16084 218.68004 115.981155 220.03941Q113.80147 221.39879 111.41084 221.39879Q109.64522 221.39879 108.24678 220.6566Q106.84834 219.91441 105.95772 218.77379L105.95772 228.88316L102.44209 228.88316ZM105.62959 210.68004Q105.62959 214.68004 107.24678 216.5941Q108.86397 218.50816 111.17647 218.50816Q113.52022 218.50816 115.18428 216.52379Q116.84834 214.53941 116.84834 210.38316Q116.84834 206.41441 115.22334 204.44566Q113.59834 202.47691 111.33272 202.47691Q109.08272 202.47691 107.356155 204.57066Q105.62959 206.66441 105.62959 210.68004ZM124.68819 228.88316L124.68819 200.18004L127.89131 200.18004L127.89131 202.88316Q129.01631 201.30504 130.446 200.50816Q131.87569 199.71129 133.90694 199.71129Q136.56319 199.71129 138.59444 201.07848Q140.62569 202.44566 141.65694 204.93785Q142.68819 207.43004 142.68819 210.39879Q142.68819 213.58629 141.54756 216.13316Q140.40694 218.68004 138.22725 220.03941Q136.04756 221.39879 133.65694 221.39879Q131.89131 221.39879 130.49287 220.6566Q129.09444 219.91441 128.20381 218.77379L128.20381 228.88316L124.68819 228.88316ZM127.87569 210.68004Q127.87569 214.68004 129.49287 216.5941Q131.11006 218.50816 133.42256 218.50816Q135.76631 218.50816 137.43037 216.52379Q139.09444 214.53941 139.09444 210.38316Q139.09444 206.41441 137.46944 204.44566Q135.84444 202.47691 133.57881 202.47691Q131.32881 202.47691 129.60225 204.57066Q127.87569 206.66441 127.87569 210.68004ZM157.20381 211.72691L160.78194 211.41441Q161.03194 213.57066 161.96162 214.94566Q162.89131 216.32066 164.84444 217.17223Q166.79756 218.02379 169.23506 218.02379Q171.40695 218.02379 173.0632 217.37535Q174.71945 216.72691 175.53195 215.60191Q176.34445 214.47691 176.34445 213.14879Q176.34445 211.80504 175.5632 210.79723Q174.78195 209.78941 172.98508 209.11754Q171.82883 208.66441 167.8835 207.7191Q163.93819 206.77379 162.36006 205.93004Q160.31319 204.85191 159.30537 203.25816Q158.29756 201.66441 158.29756 199.69566Q158.29756 197.52379 159.53194 195.64098Q160.76631 193.75816 163.12569 192.7816Q165.48506 191.80504 168.37569 191.80504Q171.5632 191.80504 173.99289 192.82848Q176.42258 193.85191 177.73508 195.8441Q179.04758 197.83629 179.14133 200.36754L175.5007 200.63316Q175.21945 197.91441 173.52414 196.5316Q171.82883 195.14879 168.53194 195.14879Q165.09444 195.14879 163.52412 196.4066Q161.95381 197.66441 161.95381 199.44566Q161.95381 200.99254 163.06319 201.97691Q164.15694 202.97691 168.77412 204.02379Q173.39133 205.07066 175.11008 205.85191Q177.61008 207.00816 178.80539 208.77379Q180.0007 210.53941 180.0007 212.83629Q180.0007 215.13316 178.6882 217.14879Q177.3757 219.16441 174.93039 220.28941Q172.48508 221.41441 169.40694 221.41441Q165.53194 221.41441 162.89912 220.2816Q160.26631 219.14879 158.77412 216.87535Q157.28194 214.60191 157.20381 211.72691ZM198.93039 214.24254L202.55539 214.69566Q201.69601 217.88316 199.3757 219.64098Q197.05539 221.39879 193.43039 221.39879Q188.88351 221.39879 186.21945 218.5941Q183.55539 215.78941 183.55539 210.72691Q183.55539 205.49254 186.2507 202.60191Q188.94601 199.71129 193.24289 199.71129Q197.39914 199.71129 200.03976 202.54723Q202.68039 205.38316 202.68039 210.52379Q202.68039 210.83629 202.64914 211.46129L187.18039 211.46129Q187.38351 214.86754 189.11789 216.68785Q190.85226 218.50816 193.46164 218.50816Q195.38351 218.50816 196.7507 217.49254Q198.11789 216.47691 198.93039 214.24254ZM187.38351 208.57066L198.96164 208.57066Q198.72726 205.94566 197.63351 204.63316Q195.96164 202.60191 193.27414 202.60191Q190.85226 202.60191 189.20383 204.22691Q187.55539 205.85191 187.38351 208.57066ZM206.92648 220.93004L206.92648 200.18004L210.09836 200.18004L210.09836 203.33629Q211.30148 201.11754 212.33273 200.41441Q213.36398 199.71129 214.58273 199.71129Q216.36398 199.71129 218.20773 200.85191L216.98898 204.11754Q215.70773 203.35191 214.41086 203.35191Q213.25461 203.35191 212.34055 204.04723Q211.42648 204.74254 211.03586 205.96129Q210.44211 207.83629 210.44211 210.07066L210.44211 220.93004L206.92648 220.93004ZM226.0593 220.93004L218.16867 200.18004L221.8718 200.18004L226.32492 212.60191Q227.04367 214.61754 227.65305 216.78941Q228.1218 215.14879 228.96555 212.83629L233.57492 200.18004L237.1843 200.18004L229.34055 220.93004L226.0593 220.93004ZM254.4968 214.24254L258.1218 214.69566Q257.26242 217.88316 254.94211 219.64098Q252.6218 221.39879 248.9968 221.39879Q244.44992 221.39879 241.78586 218.5941Q239.1218 215.78941 239.1218 210.72691Q239.1218 205.49254 241.81711 202.60191Q244.51242 199.71129 248.8093 199.71129Q252.96555 199.71129 255.60617 202.54723Q258.2468 205.38316 258.2468 210.52379Q258.2468 210.83629 258.21555 211.46129L242.7468 211.46129Q242.94992 214.86754 244.6843 216.68785Q246.41867 218.50816 249.02805 218.50816Q250.94992 218.50816 252.31711 217.49254Q253.6843 216.47691 254.4968 214.24254ZM242.94992 208.57066L254.52805 208.57066Q254.29367 205.94566 253.19992 204.63316Q251.52805 202.60191 248.84055 202.60191Q246.41867 202.60191 244.77023 204.22691Q243.1218 205.85191 242.94992 208.57066ZM262.4929 220.93004L262.4929 200.18004L265.66476 200.18004L265.66476 203.33629Q266.8679 201.11754 267.89914 200.41441Q268.9304 199.71129 270.14914 199.71129Q271.9304 199.71129 273.77414 200.85191L272.5554 204.11754Q271.27414 203.35191 269.97726 203.35191Q268.821 203.35191 267.90695 204.04723Q266.9929 204.74254 266.60226 205.96129Q266.0085 207.83629 266.0085 210.07066L266.0085 220.93004L262.4929 220.93004Z" fill-rule="nonzero" fill="#434343"></path><path d="M588.94525 423.72272L373.03415 300.0972" fill-rule="evenodd" stroke="#efefef" stroke-width="12.0" stroke-linejoin="round" stroke-linecap="butt"></path><path d="M382.88287 282.89642L325.77545 273.038L363.1854 317.29794Z" fill-rule="evenodd" fill="#efefef" stroke="#efefef" stroke-width="12.0" stroke-linecap="butt"></path><path d="M343.42615 278.33328L577.47455 410.38602" fill-rule="evenodd" stroke="#efefef" stroke-width="12.0" stroke-linejoin="round" stroke-linecap="butt"></path><path d="M567.73474 427.6487L624.9034 437.1459L587.21436 393.12335Z" fill-rule="evenodd" fill="#efefef" stroke="#efefef" stroke-width="12.0" stroke-linecap="butt"></path><path d="M322.56076 390.6305L527.53033 249.5872" fill-rule="evenodd" stroke="#efefef" stroke-width="12.0" stroke-linejoin="round" stroke-linecap="butt"></path><path d="M538.76624 265.91565L572.39233 218.71681L516.29443 233.25876Z" fill-rule="evenodd" fill="#efefef" stroke="#efefef" stroke-width="12.0" stroke-linecap="butt"></path><path d="M559.99866 232.3872L339.56787 386.0479" fill-rule="evenodd" stroke="#f3f3f3" stroke-width="12.0" stroke-linejoin="round" stroke-linecap="butt"></path><path d="M328.23315 369.7879L294.8939 417.18982L350.90262 402.30792Z" fill-rule="evenodd" fill="#f3f3f3" stroke="#f3f3f3" stroke-width="12.0" stroke-linecap="butt"></path><path d="M460.54227 466.90634L432.08432 219.72519" fill-rule="evenodd" stroke="#efefef" stroke-width="12.0" stroke-linejoin="round" stroke-linecap="butt"></path><path d="M451.77505 217.4582L425.8558 165.62538L412.39362 221.99219Z" fill-rule="evenodd" fill="#efefef" stroke="#efefef" stroke-width="12.0" stroke-linecap="butt"></path><path d="M432.112 182.98833L464.45325 449.71658" fill-rule="evenodd" stroke="#efefef" stroke-width="12.0" stroke-linejoin="round" stroke-linecap="butt"></path><path d="M444.77655 452.10242L471.00824 503.7778L484.1299 447.33075Z" fill-rule="evenodd" fill="#efefef" stroke="#efefef" stroke-width="12.0" stroke-linecap="butt"></path><path d="M24.39895 437.12912L24.39895 437.12912C24.39895 422.67087 36.11969 410.95013 50.57795 410.95013L276.58215 410.95013C283.52527 410.95013 290.184 413.70828 295.0935 418.6178C300.00302 423.5273 302.76117 430.18604 302.76117 437.12912L302.76117 541.842C302.76117 556.30023 291.04044 568.021 276.58215 568.021L50.57795 568.021C36.11969 568.021 24.39895 556.30023 24.39895 541.842Z" fill-rule="nonzero" fill="#f3f3f3" stroke="#cccccc" stroke-width="2.0" stroke-linejoin="round" stroke-linecap="butt"></path><path d="M83.11131 493.5012L86.68944 493.1887Q86.93944 495.34494 87.869125 496.71994Q88.79881 498.09494 90.75194 498.9465Q92.70506 499.79807 95.14256 499.79807Q97.31444 499.79807 98.97069 499.14963Q100.62694 498.5012 101.43944 497.3762Q102.25194 496.2512 102.25194 494.92307Q102.25194 493.5793 101.47069 492.5715Q100.68944 491.5637 98.89256 490.8918Q97.73631 490.4387 93.791 489.49338Q89.84569 488.54807 88.26756 487.7043Q86.22069 486.6262 85.212875 485.03244Q84.20506 483.4387 84.20506 481.46994Q84.20506 479.29807 85.43944 477.41525Q86.67381 475.53244 89.03319 474.55588Q91.39256 473.5793 94.28319 473.5793Q97.47069 473.5793 99.900375 474.60275Q102.33006 475.6262 103.64256 477.61838Q104.95506 479.61057 105.04881 482.1418L101.40819 482.40744Q101.12694 479.6887 99.431625 478.30588Q97.73631 476.92307 94.43944 476.92307Q91.00194 476.92307 89.431625 478.18088Q87.86131 479.4387 87.86131 481.21994Q87.86131 482.7668 88.97069 483.7512Q90.06444 484.7512 94.681625 485.79807Q99.29881 486.84494 101.01756 487.6262Q103.51756 488.78244 104.712875 490.54807Q105.90819 492.3137 105.90819 494.61057Q105.90819 496.90744 104.59569 498.92307Q103.28319 500.9387 100.837875 502.0637Q98.39256 503.1887 95.31444 503.1887Q91.43944 503.1887 88.806625 502.05588Q86.17381 500.92307 84.681625 498.64963Q83.18944 496.3762 83.11131 493.5012ZM109.32225 492.3293Q109.32225 486.5637 112.525375 483.79807Q115.19725 481.48557 119.056625 481.48557Q123.32225 481.48557 126.041 484.29025Q128.75975 487.09494 128.75975 492.03244Q128.75975 496.04807 127.556625 498.33713Q126.3535 500.6262 124.056625 501.89963Q121.75975 503.17307 119.056625 503.17307Q114.69725 503.17307 112.00975 500.3762Q109.32225 497.5793 109.32225 492.3293ZM112.931625 492.3293Q112.931625 496.3137 114.67381 498.29807Q116.416 500.28244 119.056625 500.28244Q121.666 500.28244 123.40819 498.29025Q125.150375 496.29807 125.150375 492.21994Q125.150375 488.36057 123.400375 486.384Q121.650375 484.40744 119.056625 484.40744Q116.416 484.40744 114.67381 486.3762Q112.931625 488.34494 112.931625 492.3293ZM146.4121 495.11057L149.86522 495.54807Q149.30272 499.1262 146.96678 501.14963Q144.63084 503.17307 141.24022 503.17307Q136.9746 503.17307 134.38866 500.3918Q131.80272 497.61057 131.80272 492.40744Q131.80272 489.04807 132.9199 486.53244Q134.0371 484.0168 136.31053 482.7512Q138.58397 481.48557 141.25584 481.48557Q144.63084 481.48557 146.77928 483.1965Q148.92772 484.90744 149.5371 488.04807L146.11522 488.5793Q145.63084 486.48557 144.38866 485.43088Q143.14647 484.3762 141.39647 484.3762Q138.74022 484.3762 137.07616 486.28244Q135.4121 488.1887 135.4121 492.3137Q135.4121 496.48557 137.01366 498.384Q138.61522 500.28244 141.19334 500.28244Q143.27147 500.28244 144.65428 499.009Q146.0371 497.73557 146.4121 495.11057ZM152.89647 502.7043L152.89647 474.0637L156.4121 474.0637L156.4121 490.3918L164.74022 481.9543L169.2871 481.9543L161.3496 489.65744L170.08397 502.7043L165.75584 502.7043L158.89647 492.09494L156.4121 494.48557L156.4121 502.7043L152.89647 502.7043ZM187.08397 496.0168L190.70897 496.46994Q189.8496 499.65744 187.52928 501.41525Q185.20897 503.17307 181.58397 503.17307Q177.0371 503.17307 174.37303 500.36838Q171.70897 497.5637 171.70897 492.5012Q171.70897 487.2668 174.40428 484.3762Q177.0996 481.48557 181.39647 481.48557Q185.55272 481.48557 188.19334 484.3215Q190.83397 487.15744 190.83397 492.29807Q190.83397 492.61057 190.80272 493.23557L175.33397 493.23557Q175.5371 496.6418 177.27147 498.46213Q179.00584 500.28244 181.61522 500.28244Q183.5371 500.28244 184.90428 499.2668Q186.27147 498.2512 187.08397 496.0168ZM175.5371 490.34494L187.11522 490.34494Q186.88084 487.71994 185.7871 486.40744Q184.11522 484.3762 181.42772 484.3762Q179.00584 484.3762 177.3574 486.0012Q175.70897 487.6262 175.5371 490.34494ZM202.79881 499.5637L203.31444 502.65744Q201.83006 502.98557 200.65819 502.98557Q198.73631 502.98557 197.68163 502.3762Q196.62694 501.7668 196.19725 500.78244Q195.76756 499.79807 195.76756 496.6262L195.76756 484.6887L193.18944 484.6887L193.18944 481.9543L195.76756 481.9543L195.76756 476.8293L199.26756 474.71994L199.26756 481.9543L202.79881 481.9543L202.79881 484.6887L199.26756 484.6887L199.26756 496.8293Q199.26756 498.3293 199.45506 498.759Q199.64256 499.1887 200.05663 499.4387Q200.47069 499.6887 201.25194 499.6887Q201.84569 499.6887 202.79881 499.5637ZM207.24022 502.7043L207.24022 498.7043L211.24022 498.7043L211.24022 502.7043L207.24022 502.7043ZM217.36913 478.11057L217.36913 474.0637L220.88475 474.0637L220.88475 478.11057L217.36913 478.11057ZM217.36913 502.7043L217.36913 481.9543L220.88475 481.9543L220.88475 502.7043L217.36913 502.7043ZM224.92772 492.3293Q224.92772 486.5637 228.13084 483.79807Q230.80272 481.48557 234.6621 481.48557Q238.92772 481.48557 241.64647 484.29025Q244.36522 487.09494 244.36522 492.03244Q244.36522 496.04807 243.1621 498.33713Q241.95897 500.6262 239.6621 501.89963Q237.36522 503.17307 234.6621 503.17307Q230.30272 503.17307 227.61522 500.3762Q224.92772 497.5793 224.92772 492.3293ZM228.5371 492.3293Q228.5371 496.3137 230.27928 498.29807Q232.02147 500.28244 234.6621 500.28244Q237.27147 500.28244 239.01366 498.29025Q240.75584 496.29807 240.75584 492.21994Q240.75584 488.36057 239.00584 486.384Q237.25584 484.40744 234.6621 484.40744Q232.02147 484.40744 230.27928 486.3762Q228.5371 488.34494 228.5371 492.3293Z" fill-rule="nonzero" fill="#434343"></path><path d="M619.1811 437.12912L619.1811 437.12912C619.1811 422.67087 630.90186 410.95013 645.3601 410.95013L871.3643 410.95013C878.30743 410.95013 884.9661 413.70828 889.8757 418.6178C894.78516 423.5273 897.54333 430.18604 897.54333 437.12912L897.54333 541.842C897.54333 556.30023 885.8226 568.021 871.3643 568.021L645.3601 568.021C630.90186 568.021 619.1811 556.30023 619.1811 541.842Z" fill-rule="nonzero" fill="#f3f3f3" stroke="#cccccc" stroke-width="2.0" stroke-linejoin="round" stroke-linecap="butt"></path><path d="M677.89343 493.5012L681.47156 493.1887Q681.72156 495.34494 682.65125 496.71994Q683.58093 498.09494 685.53406 498.9465Q687.4872 499.79807 689.9247 499.79807Q692.09656 499.79807 693.7528 499.14963Q695.40906 498.5012 696.22156 497.3762Q697.03406 496.2512 697.03406 494.92307Q697.03406 493.5793 696.2528 492.5715Q695.47156 491.5637 693.6747 490.8918Q692.51843 490.4387 688.5731 489.49338Q684.6278 488.54807 683.0497 487.7043Q681.0028 486.6262 679.995 485.03244Q678.9872 483.4387 678.9872 481.46994Q678.9872 479.29807 680.22156 477.41525Q681.45593 475.53244 683.8153 474.55588Q686.1747 473.5793 689.0653 473.5793Q692.2528 473.5793 694.6825 474.60275Q697.1122 475.6262 698.4247 477.61838Q699.7372 479.61057 699.83093 482.1418L696.1903 482.40744Q695.90906 479.6887 694.21375 478.30588Q692.51843 476.92307 689.22156 476.92307Q685.78406 476.92307 684.21375 478.18088Q682.64343 479.4387 682.64343 481.21994Q682.64343 482.7668 683.7528 483.7512Q684.84656 484.7512 689.46375 485.79807Q694.08093 486.84494 695.7997 487.6262Q698.2997 488.78244 699.495 490.54807Q700.6903 492.3137 700.6903 494.61057Q700.6903 496.90744 699.3778 498.92307Q698.0653 500.9387 695.62 502.0637Q693.1747 503.1887 690.09656 503.1887Q686.22156 503.1887 683.58875 502.05588Q680.95593 500.92307 679.46375 498.64963Q677.97156 496.3762 677.89343 493.5012ZM704.1044 492.3293Q704.1044 486.5637 707.3075 483.79807Q709.9794 481.48557 713.83875 481.48557Q718.1044 481.48557 720.8231 484.29025Q723.5419 487.09494 723.5419 492.03244Q723.5419 496.04807 722.33875 498.33713Q721.1356 500.6262 718.83875 501.89963Q716.5419 503.17307 713.83875 503.17307Q709.4794 503.17307 706.7919 500.3762Q704.1044 497.5793 704.1044 492.3293ZM707.71375 492.3293Q707.71375 496.3137 709.45593 498.29807Q711.1981 500.28244 713.83875 500.28244Q716.4481 500.28244 718.1903 498.29025Q719.9325 496.29807 719.9325 492.21994Q719.9325 488.36057 718.1825 486.384Q716.4325 484.40744 713.83875 484.40744Q711.1981 484.40744 709.45593 486.3762Q707.71375 488.34494 707.71375 492.3293ZM741.1942 495.11057L744.64734 495.54807Q744.08484 499.1262 741.7489 501.14963Q739.41296 503.17307 736.02234 503.17307Q731.7567 503.17307 729.1708 500.3918Q726.58484 497.61057 726.58484 492.40744Q726.58484 489.04807 727.702 486.53244Q728.8192 484.0168 731.09265 482.7512Q733.3661 481.48557 736.03796 481.48557Q739.41296 481.48557 741.5614 483.1965Q743.70984 484.90744 744.3192 488.04807L740.89734 488.5793Q740.41296 486.48557 739.1708 485.43088Q737.9286 484.3762 736.1786 484.3762Q733.52234 484.3762 731.8583 486.28244Q730.1942 488.1887 730.1942 492.3137Q730.1942 496.48557 731.7958 498.384Q733.39734 500.28244 735.97546 500.28244Q738.0536 500.28244 739.4364 499.009Q740.8192 497.73557 741.1942 495.11057ZM747.6786 502.7043L747.6786 474.0637L751.1942 474.0637L751.1942 490.3918L759.5224 481.9543L764.0693 481.9543L756.1318 489.65744L764.86615 502.7043L760.538 502.7043L753.6786 492.09494L751.1942 494.48557L751.1942 502.7043L747.6786 502.7043ZM781.86615 496.0168L785.49115 496.46994Q784.6318 499.65744 782.31146 501.41525Q779.99115 503.17307 776.36615 503.17307Q771.8193 503.17307 769.1552 500.36838Q766.49115 497.5637 766.49115 492.5012Q766.49115 487.2668 769.18646 484.3762Q771.8818 481.48557 776.17865 481.48557Q780.3349 481.48557 782.9755 484.3215Q785.61615 487.15744 785.61615 492.29807Q785.61615 492.61057 785.5849 493.23557L770.11615 493.23557Q770.3193 496.6418 772.05365 498.46213Q773.788 500.28244 776.3974 500.28244Q778.3193 500.28244 779.68646 499.2668Q781.05365 498.2512 781.86615 496.0168ZM770.3193 490.34494L781.8974 490.34494Q781.663 487.71994 780.5693 486.40744Q778.8974 484.3762 776.2099 484.3762Q773.788 484.3762 772.1396 486.0012Q770.49115 487.6262 770.3193 490.34494ZM797.581 499.5637L798.0966 502.65744Q796.61224 502.98557 795.44037 502.98557Q793.5185 502.98557 792.4638 502.3762Q791.4091 501.7668 790.97943 500.78244Q790.54974 499.79807 790.54974 496.6262L790.54974 484.6887L787.9716 484.6887L787.9716 481.9543L790.54974 481.9543L790.54974 476.8293L794.04974 474.71994L794.04974 481.9543L797.581 481.9543L797.581 484.6887L794.04974 484.6887L794.04974 496.8293Q794.04974 498.3293 794.23724 498.759Q794.42474 499.1887 794.8388 499.4387Q795.25287 499.6887 796.0341 499.6887Q796.62787 499.6887 797.581 499.5637ZM802.0224 502.7043L802.0224 498.7043L806.0224 498.7043L806.0224 502.7043L802.0224 502.7043ZM812.1513 478.11057L812.1513 474.0637L815.66693 474.0637L815.66693 478.11057L812.1513 478.11057ZM812.1513 502.7043L812.1513 481.9543L815.66693 481.9543L815.66693 502.7043L812.1513 502.7043ZM819.7099 492.3293Q819.7099 486.5637 822.913 483.79807Q825.5849 481.48557 829.4443 481.48557Q833.7099 481.48557 836.42865 484.29025Q839.1474 487.09494 839.1474 492.03244Q839.1474 496.04807 837.9443 498.33713Q836.74115 500.6262 834.4443 501.89963Q832.1474 503.17307 829.4443 503.17307Q825.0849 503.17307 822.3974 500.3762Q819.7099 497.5793 819.7099 492.3293ZM823.3193 492.3293Q823.3193 496.3137 825.06146 498.29807Q826.80365 500.28244 829.4443 500.28244Q832.05365 500.28244 833.79584 498.29025Q835.538 496.29807 835.538 492.21994Q835.538 488.36057 833.788 486.384Q832.038 484.40744 829.4443 484.40744Q826.80365 484.40744 825.06146 486.3762Q823.3193 488.34494 823.3193 492.3293Z" fill-rule="nonzero" fill="#434343"></path><g transform="matrix(0.20861653543307088 0.0 0.0 0.20926272965879267 277.8682372703412 275.9673897637795)"><image fill="#000" width="1772" height="591" xlink:href="http://redis.io/images/redis-300dpi.png"></image></g></svg>

