<?xml version="1.0" standalone="yes"?>

<svg version="1.1" viewBox="0.0 0.0 960.0 720.0" fill="none" stroke="none" stroke-linecap="square" stroke-miterlimit="10" clip-path="url(#clip0)" xmlns="http://www.w3.org/2000/svg" xmlns:xlink="http://www.w3.org/1999/xlink"><clipPath id="clip0"><path d="M0 0L960.0 0L960.0 720.0L0 720.0L0 0Z" clip-rule="nonzero"></path></clipPath><path d="M340.8189 49.856167L340.8189 49.856167C340.8189 35.397903 352.53964 23.677166 366.9979 23.677166L593.0021 23.677166C599.9452 23.677166 606.60394 26.435303 611.5134 31.344818C616.423 36.254333 619.1811 42.913063 619.1811 49.856167L619.1811 154.56903C619.1811 169.0273 607.4604 180.74803 593.0021 180.74803L366.9979 180.74803C352.53964 180.74803 340.8189 169.0273 340.8189 154.56903Z" fill-rule="nonzero" fill="#f3f3f3" stroke="#cccccc" stroke-width="2.0" stroke-linejoin="round" stroke-linecap="butt"></path><path d="M388.41797 83.228226L391.9961 82.915726Q392.2461 85.071976 393.17578 86.446976Q394.10547 87.821976 396.0586 88.67354Q398.01172 89.5251 400.44922 89.5251Q402.6211 89.5251 404.27734 88.87666Q405.9336 88.228226 406.7461 87.103226Q407.5586 85.978226 407.5586 84.6501Q407.5586 83.30635 406.77734 82.29854Q405.9961 81.290726 404.19922 80.61885Q403.04297 80.165726 399.09766 79.22041Q395.15234 78.2751 393.57422 77.43135Q391.52734 76.353226 390.51953 74.759476Q389.51172 73.165726 389.51172 71.196976Q389.51172 69.0251 390.7461 67.14229Q391.98047 65.259476 394.33984 64.28291Q396.69922 63.30635 399.58984 63.30635Q402.77734 63.30635 405.20703 64.32979Q407.63672 65.353226 408.94922 67.34541Q410.26172 69.3376 410.35547 71.86885L406.71484 72.134476Q406.4336 69.415726 404.73828 68.03291Q403.04297 66.6501 399.7461 66.6501Q396.3086 66.6501 394.73828 67.90791Q393.16797 69.165726 393.16797 70.946976Q393.16797 72.49385 394.27734 73.478226Q395.3711 74.478226 399.98828 75.5251Q404.60547 76.571976 406.32422 77.353226Q408.82422 78.509476 410.01953 80.2751Q411.21484 82.040726 411.21484 84.3376Q411.21484 86.634476 409.90234 88.6501Q408.58984 90.665726 406.14453 91.790726Q403.69922 92.915726 400.6211 92.915726Q396.7461 92.915726 394.11328 91.78291Q391.48047 90.6501 389.98828 88.37666Q388.4961 86.103226 388.41797 83.228226ZM414.6289 82.05635Q414.6289 76.290726 417.83203 73.5251Q420.5039 71.2126 424.36328 71.2126Q428.6289 71.2126 431.34766 74.01729Q434.0664 76.821976 434.0664 81.759476Q434.0664 85.7751 432.86328 88.06416Q431.66016 90.353226 429.36328 91.62666Q427.0664 92.9001 424.36328 92.9001Q420.0039 92.9001 417.3164 90.103226Q414.6289 87.30635 414.6289 82.05635ZM418.23828 82.05635Q418.23828 86.040726 419.98047 88.0251Q421.72266 90.009476 424.36328 90.009476Q426.97266 90.009476 428.71484 88.01729Q430.45703 86.0251 430.45703 81.946976Q430.45703 78.0876 428.70703 76.11104Q426.95703 74.134476 424.36328 74.134476Q421.72266 74.134476 419.98047 76.103226Q418.23828 78.071976 418.23828 82.05635ZM451.71875 84.8376L455.17188 85.2751Q454.60938 88.853226 452.27344 90.87666Q449.9375 92.9001 446.54688 92.9001Q442.28125 92.9001 439.6953 90.11885Q437.10938 87.3376 437.10938 82.134476Q437.10938 78.7751 438.22656 76.259476Q439.34375 73.74385 441.6172 72.478226Q443.89062 71.2126 446.5625 71.2126Q449.9375 71.2126 452.08594 72.92354Q454.23438 74.634476 454.84375 77.7751L451.42188 78.30635Q450.9375 76.2126 449.6953 75.15791Q448.45312 74.103226 446.70312 74.103226Q444.04688 74.103226 442.3828 76.009476Q440.71875 77.915726 440.71875 82.040726Q440.71875 86.2126 442.3203 88.11104Q443.92188 90.009476 446.5 90.009476Q448.57812 90.009476 449.96094 88.73604Q451.34375 87.4626 451.71875 84.8376ZM458.20312 92.43135L458.20312 63.790726L461.71875 63.790726L461.71875 80.11885L470.04688 71.68135L474.59375 71.68135L466.65625 79.384476L475.39062 92.43135L471.0625 92.43135L464.20312 81.821976L461.71875 84.2126L461.71875 92.43135L458.20312 92.43135ZM492.39062 85.74385L496.01562 86.196976Q495.15625 89.384476 492.83594 91.14229Q490.51562 92.9001 486.89062 92.9001Q482.34375 92.9001 479.6797 90.09541Q477.01562 87.290726 477.01562 82.228226Q477.01562 76.99385 479.71094 74.103226Q482.40625 71.2126 486.70312 71.2126Q490.85938 71.2126 493.5 74.04854Q496.14062 76.884476 496.14062 82.0251Q496.14062 82.3376 496.10938 82.9626L480.64062 82.9626Q480.84375 86.36885 482.57812 88.18916Q484.3125 90.009476 486.92188 90.009476Q488.84375 90.009476 490.21094 88.99385Q491.57812 87.978226 492.39062 85.74385ZM480.84375 80.071976L492.42188 80.071976Q492.1875 77.446976 491.09375 76.134476Q489.42188 74.103226 486.73438 74.103226Q484.3125 74.103226 482.66406 75.728226Q481.01562 77.353226 480.84375 80.071976ZM508.10547 89.290726L508.6211 92.384476Q507.13672 92.7126 505.96484 92.7126Q504.04297 92.7126 502.98828 92.103226Q501.9336 91.49385 501.5039 90.509476Q501.07422 89.5251 501.07422 86.353226L501.07422 74.415726L498.4961 74.415726L498.4961 71.68135L501.07422 71.68135L501.07422 66.55635L504.57422 64.446976L504.57422 71.68135L508.10547 71.68135L508.10547 74.415726L504.57422 74.415726L504.57422 86.55635Q504.57422 88.05635 504.76172 88.48604Q504.94922 88.915726 505.36328 89.165726Q505.77734 89.415726 506.5586 89.415726Q507.15234 89.415726 508.10547 89.290726ZM512.5469 92.43135L512.5469 88.43135L516.5469 88.43135L516.5469 92.43135L512.5469 92.43135ZM522.6758 67.8376L522.6758 63.790726L526.1914 63.790726L526.1914 67.8376L522.6758 67.8376ZM522.6758 92.43135L522.6758 71.68135L526.1914 71.68135L526.1914 92.43135L522.6758 92.43135ZM530.2344 82.05635Q530.2344 76.290726 533.4375 73.5251Q536.1094 71.2126 539.96875 71.2126Q544.2344 71.2126 546.9531 74.01729Q549.6719 76.821976 549.6719 81.759476Q549.6719 85.7751 548.46875 88.06416Q547.2656 90.353226 544.96875 91.62666Q542.6719 92.9001 539.96875 92.9001Q535.6094 92.9001 532.9219 90.103226Q530.2344 87.30635 530.2344 82.05635ZM533.84375 82.05635Q533.84375 86.040726 535.58594 88.0251Q537.3281 90.009476 539.96875 90.009476Q542.5781 90.009476 544.3203 88.01729Q546.0625 86.0251 546.0625 81.946976Q546.0625 78.0876 544.3125 76.11104Q542.5625 74.134476 539.96875 74.134476Q537.3281 74.134476 535.58594 76.103226Q533.84375 78.071976 533.84375 82.05635ZM562.2656 92.915726L570.5625 63.30635L573.375 63.30635L565.09375 92.915726L562.2656 92.915726Z" fill-rule="nonzero" fill="#434343"></path><path d="M379.88867 138.43135L390.88867 109.790726L394.9668 109.790726L406.68555 138.43135L402.37305 138.43135L399.0293 129.75948L387.06055 129.75948L383.91992 138.43135L379.88867 138.43135ZM388.1543 126.665726L397.85742 126.665726L394.87305 118.74385Q393.51367 115.134476 392.8418 112.80635Q392.29492 115.55635 391.29492 118.2751L388.1543 126.665726ZM409.27148 146.38448L409.27148 117.68135L412.4746 117.68135L412.4746 120.384476Q413.5996 118.80635 415.0293 118.009476Q416.45898 117.2126 418.49023 117.2126Q421.14648 117.2126 423.17773 118.57979Q425.20898 119.946976 426.24023 122.43916Q427.27148 124.93135 427.27148 127.9001Q427.27148 131.0876 426.13086 133.63448Q424.99023 136.18135 422.81055 137.54073Q420.63086 138.9001 418.24023 138.9001Q416.4746 138.9001 415.07617 138.15791Q413.67773 137.41573 412.7871 136.2751L412.7871 146.38448L409.27148 146.38448ZM412.45898 128.18135Q412.45898 132.18135 414.07617 134.09541Q415.69336 136.00948 418.00586 136.00948Q420.3496 136.00948 422.01367 134.0251Q423.67773 132.04073 423.67773 127.884476Q423.67773 123.915726 422.05273 121.946976Q420.42773 119.978226 418.1621 119.978226Q415.9121 119.978226 414.18555 122.071976Q412.45898 124.165726 412.45898 128.18135ZM431.51758 146.38448L431.51758 117.68135L434.7207 117.68135L434.7207 120.384476Q435.8457 118.80635 437.2754 118.009476Q438.70508 117.2126 440.73633 117.2126Q443.39258 117.2126 445.42383 118.57979Q447.45508 119.946976 448.48633 122.43916Q449.51758 124.93135 449.51758 127.9001Q449.51758 131.0876 448.37695 133.63448Q447.23633 136.18135 445.05664 137.54073Q442.87695 138.9001 440.48633 138.9001Q438.7207 138.9001 437.32227 138.15791Q435.92383 137.41573 435.0332 136.2751L435.0332 146.38448L431.51758 146.38448ZM434.70508 128.18135Q434.70508 132.18135 436.32227 134.09541Q437.93945 136.00948 440.25195 136.00948Q442.5957 136.00948 444.25977 134.0251Q445.92383 132.04073 445.92383 127.884476Q445.92383 123.915726 444.29883 121.946976Q442.67383 119.978226 440.4082 119.978226Q438.1582 119.978226 436.43164 122.071976Q434.70508 124.165726 434.70508 128.18135ZM464.0332 129.22823L467.61133 128.91573Q467.86133 131.07198 468.79102 132.44698Q469.7207 133.82198 471.67383 134.67354Q473.62695 135.5251 476.06445 135.5251Q478.23633 135.5251 479.89258 134.87666Q481.54883 134.22823 482.36133 133.10323Q483.17383 131.97823 483.17383 130.6501Q483.17383 129.30635 482.39258 128.29854Q481.61133 127.290726 479.81445 126.61885Q478.6582 126.165726 474.7129 125.22041Q470.76758 124.2751 469.18945 123.43135Q467.14258 122.353226 466.13477 120.759476Q465.12695 119.165726 465.12695 117.196976Q465.12695 115.0251 466.36133 113.14229Q467.5957 111.259476 469.95508 110.28291Q472.31445 109.30635 475.20508 109.30635Q478.39258 109.30635 480.82227 110.32979Q483.25195 111.353226 484.56445 113.34541Q485.87695 115.3376 485.9707 117.86885L482.33008 118.134476Q482.04883 115.415726 480.35352 114.03291Q478.6582 112.6501 475.36133 112.6501Q471.92383 112.6501 470.35352 113.90791Q468.7832 115.165726 468.7832 116.946976Q468.7832 118.49385 469.89258 119.478226Q470.98633 120.478226 475.60352 121.5251Q480.2207 122.571976 481.93945 123.353226Q484.43945 124.509476 485.63477 126.2751Q486.83008 128.04073 486.83008 130.3376Q486.83008 132.63448 485.51758 134.6501Q484.20508 136.66573 481.75977 137.79073Q479.31445 138.91573 476.23633 138.91573Q472.36133 138.91573 469.72852 137.78291Q467.0957 136.6501 465.60352 134.37666Q464.11133 132.10323 464.0332 129.22823ZM505.75977 131.74385L509.38477 132.19698Q508.5254 135.38448 506.20508 137.14229Q503.88477 138.9001 500.25977 138.9001Q495.7129 138.9001 493.04883 136.09541Q490.38477 133.29073 490.38477 128.22823Q490.38477 122.99385 493.08008 120.103226Q495.7754 117.2126 500.07227 117.2126Q504.22852 117.2126 506.86914 120.04854Q509.50977 122.884476 509.50977 128.0251Q509.50977 128.3376 509.47852 128.9626L494.00977 128.9626Q494.2129 132.36885 495.94727 134.18916Q497.68164 136.00948 500.29102 136.00948Q502.2129 136.00948 503.58008 134.99385Q504.94727 133.97823 505.75977 131.74385ZM494.2129 126.071976L505.79102 126.071976Q505.55664 123.446976 504.4629 122.134476Q502.79102 120.103226 500.10352 120.103226Q497.68164 120.103226 496.0332 121.728226Q494.38477 123.353226 494.2129 126.071976ZM513.75586 138.43135L513.75586 117.68135L516.92773 117.68135L516.92773 120.8376Q518.13086 118.61885 519.1621 117.915726Q520.19336 117.2126 521.4121 117.2126Q523.19336 117.2126 525.0371 118.353226L523.81836 121.61885Q522.5371 120.853226 521.24023 120.853226Q520.084 120.853226 519.1699 121.54854Q518.25586 122.24385 517.86523 123.4626Q517.2715 125.3376 517.2715 127.571976L517.2715 138.43135L513.75586 138.43135ZM532.8887 138.43135L524.99805 117.68135L528.7012 117.68135L533.1543 130.10323Q533.87305 132.11885 534.4824 134.29073Q534.9512 132.6501 535.7949 130.3376L540.4043 117.68135L544.0137 117.68135L536.1699 138.43135L532.8887 138.43135ZM561.3262 131.74385L564.9512 132.19698Q564.0918 135.38448 561.7715 137.14229Q559.4512 138.9001 555.8262 138.9001Q551.2793 138.9001 548.61523 136.09541Q545.9512 133.29073 545.9512 128.22823Q545.9512 122.99385 548.6465 120.103226Q551.3418 117.2126 555.6387 117.2126Q559.7949 117.2126 562.43555 120.04854Q565.0762 122.884476 565.0762 128.0251Q565.0762 128.3376 565.0449 128.9626L549.5762 128.9626Q549.7793 132.36885 551.5137 134.18916Q553.24805 136.00948 555.8574 136.00948Q557.7793 136.00948 559.1465 134.99385Q560.5137 133.97823 561.3262 131.74385ZM549.7793 126.071976L561.3574 126.071976Q561.12305 123.446976 560.0293 122.134476Q558.3574 120.103226 555.6699 120.103226Q553.24805 120.103226 551.5996 121.728226Q549.9512 123.353226 549.7793 126.071976ZM569.32227 138.43135L569.32227 117.68135L572.49414 117.68135L572.49414 120.8376Q573.69727 118.61885 574.7285 117.915726Q575.75977 117.2126 576.9785 117.2126Q578.75977 117.2126 580.6035 118.353226L579.38477 121.61885Q578.1035 120.853226 576.80664 120.853226Q575.6504 120.853226 574.7363 121.54854Q573.82227 122.24385 573.43164 123.4626Q572.8379 125.3376 572.8379 127.571976L572.8379 138.43135L569.32227 138.43135Z" fill-rule="nonzero" fill="#434343"></path><path d="M619.4514 421.12912L619.4514 421.12912C619.4514 406.67087 631.1722 394.95013 645.63043 394.95013L776.7685 394.95013C783.7116 394.95013 790.37036 397.70828 795.27985 402.6178C800.1894 407.5273 802.9475 414.18604 802.9475 421.12912L802.9475 525.842C802.9475 540.30023 791.22675 552.021 776.7685 552.021L645.63043 552.021L645.63043 552.021C631.1722 552.021 619.4514 540.30023 619.4514 525.842Z" fill-rule="nonzero" fill="#f3f3f3" stroke="#cccccc" stroke-width="2.0" stroke-linejoin="round" stroke-linecap="butt"></path><path d="M683.5823 476.65744L687.37915 477.6262Q686.176 482.28244 683.0823 484.73557Q679.9885 487.1887 675.5198 487.1887Q670.8948 487.1887 667.9885 485.30588Q665.0823 483.42307 663.57446 479.84494Q662.06665 476.2668 662.06665 472.17307Q662.06665 467.7043 663.7698 464.36838Q665.4729 461.03244 668.62915 459.30588Q671.7854 457.5793 675.5823 457.5793Q679.87915 457.5793 682.80884 459.7668Q685.7385 461.9543 686.87915 465.92307L683.1604 466.79807Q682.1604 463.67307 680.26196 462.2512Q678.3635 460.8293 675.50415 460.8293Q672.19165 460.8293 669.9807 462.40744Q667.7698 463.98557 666.87134 466.64963Q665.9729 469.3137 665.9729 472.15744Q665.9729 475.79807 667.0354 478.52463Q668.0979 481.2512 670.3401 482.60275Q672.5823 483.9543 675.2073 483.9543Q678.3948 483.9543 680.5979 482.11838Q682.801 480.28244 683.5823 476.65744ZM691.51587 486.7043L691.51587 458.0637L695.0315 458.0637L695.0315 486.7043L691.51587 486.7043ZM700.49634 462.11057L700.49634 458.0637L704.01196 458.0637L704.01196 462.11057L700.49634 462.11057ZM700.49634 486.7043L700.49634 465.9543L704.01196 465.9543L704.01196 486.7043L700.49634 486.7043ZM723.57056 480.0168L727.19556 480.46994Q726.3362 483.65744 724.01587 485.41525Q721.69556 487.17307 718.07056 487.17307Q713.5237 487.17307 710.8596 484.36838Q708.19556 481.5637 708.19556 476.5012Q708.19556 471.2668 710.89087 468.3762Q713.5862 465.48557 717.88306 465.48557Q722.0393 465.48557 724.67993 468.3215Q727.32056 471.15744 727.32056 476.29807Q727.32056 476.61057 727.2893 477.23557L711.82056 477.23557Q712.0237 480.6418 713.75806 482.46213Q715.49243 484.28244 718.1018 484.28244Q720.0237 484.28244 721.39087 483.2668Q722.75806 482.2512 723.57056 480.0168ZM712.0237 474.34494L723.6018 474.34494Q723.36743 471.71994 722.2737 470.40744Q720.6018 468.3762 717.9143 468.3762Q715.49243 468.3762 713.844 470.0012Q712.19556 471.6262 712.0237 474.34494ZM731.6135 486.7043L731.6135 465.9543L734.7698 465.9543L734.7698 468.90744Q737.06665 465.48557 741.37915 465.48557Q743.25415 465.48557 744.82446 466.16525Q746.3948 466.84494 747.176 467.9387Q747.9573 469.03244 748.2698 470.53244Q748.4729 471.5012 748.4729 473.9543L748.4729 486.7043L744.9573 486.7043L744.9573 474.0793Q744.9573 471.9387 744.5432 470.8762Q744.12915 469.8137 743.0823 469.17307Q742.0354 468.53244 740.62915 468.53244Q738.3948 468.53244 736.76196 469.96213Q735.12915 471.3918 735.12915 475.3762L735.12915 486.7043L731.6135 486.7043ZM761.5315 483.5637L762.0471 486.65744Q760.56274 486.98557 759.39087 486.98557Q757.469 486.98557 756.4143 486.3762Q755.3596 485.7668 754.92993 484.78244Q754.50024 483.79807 754.50024 480.6262L754.50024 468.6887L751.9221 468.6887L751.9221 465.9543L754.50024 465.9543L754.50024 460.8293L758.00024 458.71994L758.00024 465.9543L761.5315 465.9543L761.5315 468.6887L758.00024 468.6887L758.00024 480.8293Q758.00024 482.3293 758.18774 482.759Q758.37524 483.1887 758.7893 483.4387Q759.20337 483.6887 759.9846 483.6887Q760.57837 483.6887 761.5315 483.5637Z" fill-rule="nonzero" fill="#434343"></path><path d="M635.4514 437.12912L635.4514 437.12912C635.4514 422.67087 647.1722 410.95013 661.63043 410.95013L792.7685 410.95013C799.7116 410.95013 806.37036 413.70828 811.27985 418.6178C816.1894 423.5273 818.9475 430.18604 818.9475 437.12912L818.9475 541.842C818.9475 556.30023 807.22675 568.021 792.7685 568.021L661.63043 568.021L661.63043 568.021C647.1722 568.021 635.4514 556.30023 635.4514 541.842Z" fill-rule="nonzero" fill="#f3f3f3" stroke="#cccccc" stroke-width="2.0" stroke-linejoin="round" stroke-linecap="butt"></path><path d="M699.5823 492.65744L703.37915 493.6262Q702.176 498.28244 699.0823 500.73557Q695.9885 503.1887 691.5198 503.1887Q686.8948 503.1887 683.9885 501.30588Q681.0823 499.42307 679.57446 495.84494Q678.06665 492.2668 678.06665 488.17307Q678.06665 483.7043 679.7698 480.36838Q681.4729 477.03244 684.62915 475.30588Q687.7854 473.5793 691.5823 473.5793Q695.87915 473.5793 698.80884 475.7668Q701.7385 477.9543 702.87915 481.92307L699.1604 482.79807Q698.1604 479.67307 696.26196 478.2512Q694.3635 476.8293 691.50415 476.8293Q688.19165 476.8293 685.9807 478.40744Q683.7698 479.98557 682.87134 482.64963Q681.9729 485.3137 681.9729 488.15744Q681.9729 491.79807 683.0354 494.52463Q684.0979 497.2512 686.3401 498.60275Q688.5823 499.9543 691.2073 499.9543Q694.3948 499.9543 696.5979 498.11838Q698.801 496.28244 699.5823 492.65744ZM707.51587 502.7043L707.51587 474.0637L711.0315 474.0637L711.0315 502.7043L707.51587 502.7043ZM716.49634 478.11057L716.49634 474.0637L720.01196 474.0637L720.01196 478.11057L716.49634 478.11057ZM716.49634 502.7043L716.49634 481.9543L720.01196 481.9543L720.01196 502.7043L716.49634 502.7043ZM739.57056 496.0168L743.19556 496.46994Q742.3362 499.65744 740.01587 501.41525Q737.69556 503.17307 734.07056 503.17307Q729.5237 503.17307 726.8596 500.36838Q724.19556 497.5637 724.19556 492.5012Q724.19556 487.2668 726.89087 484.3762Q729.5862 481.48557 733.88306 481.48557Q738.0393 481.48557 740.67993 484.3215Q743.32056 487.15744 743.32056 492.29807Q743.32056 492.61057 743.2893 493.23557L727.82056 493.23557Q728.0237 496.6418 729.75806 498.46213Q731.49243 500.28244 734.1018 500.28244Q736.0237 500.28244 737.39087 499.2668Q738.75806 498.2512 739.57056 496.0168ZM728.0237 490.34494L739.6018 490.34494Q739.36743 487.71994 738.2737 486.40744Q736.6018 484.3762 733.9143 484.3762Q731.49243 484.3762 729.844 486.0012Q728.19556 487.6262 728.0237 490.34494ZM747.6135 502.7043L747.6135 481.9543L750.7698 481.9543L750.7698 484.90744Q753.06665 481.48557 757.37915 481.48557Q759.25415 481.48557 760.82446 482.16525Q762.3948 482.84494 763.176 483.9387Q763.9573 485.03244 764.2698 486.53244Q764.4729 487.5012 764.4729 489.9543L764.4729 502.7043L760.9573 502.7043L760.9573 490.0793Q760.9573 487.9387 760.5432 486.8762Q760.12915 485.8137 759.0823 485.17307Q758.0354 484.53244 756.62915 484.53244Q754.3948 484.53244 752.76196 485.96213Q751.12915 487.3918 751.12915 491.3762L751.12915 502.7043L747.6135 502.7043ZM777.5315 499.5637L778.0471 502.65744Q776.56274 502.98557 775.39087 502.98557Q773.469 502.98557 772.4143 502.3762Q771.3596 501.7668 770.92993 500.78244Q770.50024 499.79807 770.50024 496.6262L770.50024 484.6887L767.9221 484.6887L767.9221 481.9543L770.50024 481.9543L770.50024 476.8293L774.00024 474.71994L774.00024 481.9543L777.5315 481.9543L777.5315 484.6887L774.00024 484.6887L774.00024 496.8293Q774.00024 498.3293 774.18774 498.759Q774.37524 499.1887 774.7893 499.4387Q775.20337 499.6887 775.9846 499.6887Q776.57837 499.6887 777.5315 499.5637Z" fill-rule="nonzero" fill="#434343"></path><path d="M651.4514 453.12912L651.4514 453.12912C651.4514 438.67087 663.1722 426.95013 677.63043 426.95013L808.7685 426.95013C815.7116 426.95013 822.37036 429.70828 827.27985 434.6178C832.1894 439.5273 834.9475 446.18604 834.9475 453.12912L834.9475 557.842C834.9475 572.30023 823.22675 584.021 808.7685 584.021L677.63043 584.021L677.63043 584.021C663.1722 584.021 651.4514 572.30023 651.4514 557.842Z" fill-rule="nonzero" fill="#f3f3f3" stroke="#cccccc" stroke-width="2.0" stroke-linejoin="round" stroke-linecap="butt"></path><path d="M715.5823 508.65744L719.37915 509.6262Q718.176 514.2825 715.0823 516.7356Q711.9885 519.1887 707.5198 519.1887Q702.8948 519.1887 699.9885 517.3059Q697.0823 515.4231 695.57446 511.84494Q694.06665 508.2668 694.06665 504.17307Q694.06665 499.7043 695.7698 496.36838Q697.4729 493.03244 700.62915 491.30588Q703.7854 489.5793 707.5823 489.5793Q711.87915 489.5793 714.80884 491.7668Q717.7385 493.9543 718.87915 497.92307L715.1604 498.79807Q714.1604 495.67307 712.26196 494.2512Q710.3635 492.8293 707.50415 492.8293Q704.19165 492.8293 701.9807 494.40744Q699.7698 495.98557 698.87134 498.64963Q697.9729 501.3137 697.9729 504.15744Q697.9729 507.79807 699.0354 510.52463Q700.0979 513.2512 702.3401 514.6028Q704.5823 515.95435 707.2073 515.95435Q710.3948 515.95435 712.5979 514.1184Q714.801 512.2825 715.5823 508.65744ZM723.51587 518.70435L723.51587 490.0637L727.0315 490.0637L727.0315 518.70435L723.51587 518.70435ZM732.49634 494.11057L732.49634 490.0637L736.01196 490.0637L736.01196 494.11057L732.49634 494.11057ZM732.49634 518.70435L732.49634 497.9543L736.01196 497.9543L736.01196 518.70435L732.49634 518.70435ZM755.57056 512.01685L759.19556 512.47Q758.3362 515.6575 756.01587 517.4153Q753.69556 519.1731 750.07056 519.1731Q745.5237 519.1731 742.8596 516.3684Q740.19556 513.5637 740.19556 508.5012Q740.19556 503.2668 742.89087 500.3762Q745.5862 497.48557 749.88306 497.48557Q754.0393 497.48557 756.67993 500.3215Q759.32056 503.15744 759.32056 508.29807Q759.32056 508.61057 759.2893 509.23557L743.82056 509.23557Q744.0237 512.64185 745.75806 514.46216Q747.49243 516.2825 750.1018 516.2825Q752.0237 516.2825 753.39087 515.26685Q754.75806 514.2512 755.57056 512.01685ZM744.0237 506.34494L755.6018 506.34494Q755.36743 503.71994 754.2737 502.40744Q752.6018 500.3762 749.9143 500.3762Q747.49243 500.3762 745.844 502.0012Q744.19556 503.6262 744.0237 506.34494ZM763.6135 518.70435L763.6135 497.9543L766.7698 497.9543L766.7698 500.90744Q769.06665 497.48557 773.37915 497.48557Q775.25415 497.48557 776.82446 498.16525Q778.3948 498.84494 779.176 499.9387Q779.9573 501.03244 780.2698 502.53244Q780.4729 503.5012 780.4729 505.9543L780.4729 518.70435L776.9573 518.70435L776.9573 506.0793Q776.9573 503.9387 776.5432 502.8762Q776.12915 501.8137 775.0823 501.17307Q774.0354 500.53244 772.62915 500.53244Q770.3948 500.53244 768.76196 501.96213Q767.12915 503.3918 767.12915 507.3762L767.12915 518.70435L763.6135 518.70435ZM793.5315 515.5637L794.0471 518.6575Q792.56274 518.9856 791.39087 518.9856Q789.469 518.9856 788.4143 518.3762Q787.3596 517.76685 786.92993 516.7825Q786.50024 515.7981 786.50024 512.6262L786.50024 500.6887L783.9221 500.6887L783.9221 497.9543L786.50024 497.9543L786.50024 492.8293L790.00024 490.71994L790.00024 497.9543L793.5315 497.9543L793.5315 500.6887L790.00024 500.6887L790.00024 512.82935Q790.00024 514.32935 790.18774 514.75903Q790.37524 515.1887 790.7893 515.4387Q791.20337 515.6887 791.9846 515.6887Q792.57837 515.6887 793.5315 515.5637Z" fill-rule="nonzero" fill="#434343"></path><path d="M640.94226 132.35486L640.94226 132.35486C640.94226 117.89659 652.663 106.17585 667.1213 106.17585L893.1255 106.17585C900.06854 106.17585 906.7273 108.93399 911.6368 113.843506C916.5463 118.75302 919.30444 125.41175 919.30444 132.35486L919.30444 237.06772C919.30444 251.52599 907.58374 263.2467 893.1255 263.2467L667.1213 263.2467C652.663 263.2467 640.94226 251.52599 640.94226 237.06772Z" fill-rule="nonzero" fill="#f3f3f3" stroke="#cccccc" stroke-width="2.0" stroke-linejoin="round" stroke-linecap="butt"></path><path d="M688.5413 165.72691L692.11945 165.41441Q692.36945 167.57066 693.29913 168.94566Q694.2288 170.32066 696.18195 171.17223Q698.1351 172.02379 700.5726 172.02379Q702.74445 172.02379 704.4007 171.37535Q706.05695 170.72691 706.86945 169.60191Q707.68195 168.47691 707.68195 167.14879Q707.68195 165.80504 706.9007 164.79723Q706.11945 163.78941 704.3226 163.11754Q703.1663 162.66441 699.221 161.7191Q695.2757 160.77379 693.6976 159.93004Q691.6507 158.85191 690.6429 157.25816Q689.6351 155.66441 689.6351 153.69566Q689.6351 151.52379 690.86945 149.64098Q692.1038 147.75816 694.4632 146.7816Q696.8226 145.80504 699.7132 145.80504Q702.9007 145.80504 705.3304 146.82848Q707.7601 147.85191 709.0726 149.8441Q710.3851 151.83629 710.4788 154.36754L706.8382 154.63316Q706.55695 151.91441 704.86163 150.5316Q703.1663 149.14879 699.86945 149.14879Q696.43195 149.14879 694.86163 150.4066Q693.2913 151.66441 693.2913 153.44566Q693.2913 154.99254 694.4007 155.97691Q695.49445 156.97691 700.11163 158.02379Q704.7288 159.07066 706.4476 159.85191Q708.9476 161.00816 710.1429 162.77379Q711.3382 164.53941 711.3382 166.83629Q711.3382 169.13316 710.0257 171.14879Q708.7132 173.16441 706.2679 174.28941Q703.8226 175.41441 700.74445 175.41441Q696.86945 175.41441 694.23663 174.2816Q691.6038 173.14879 690.11163 170.87535Q688.61945 168.60191 688.5413 165.72691ZM714.75226 164.55504Q714.75226 158.78941 717.9554 156.02379Q720.62726 153.71129 724.48663 153.71129Q728.75226 153.71129 731.471 156.51598Q734.18976 159.32066 734.18976 164.25816Q734.18976 168.27379 732.98663 170.56285Q731.7835 172.85191 729.48663 174.12535Q727.18976 175.39879 724.48663 175.39879Q720.12726 175.39879 717.43976 172.60191Q714.75226 169.80504 714.75226 164.55504ZM718.36163 164.55504Q718.36163 168.53941 720.1038 170.52379Q721.846 172.50816 724.48663 172.50816Q727.096 172.50816 728.8382 170.51598Q730.5804 168.52379 730.5804 164.44566Q730.5804 160.58629 728.8304 158.60973Q727.0804 156.63316 724.48663 156.63316Q721.846 156.63316 720.1038 158.60191Q718.36163 160.57066 718.36163 164.55504ZM751.8421 167.33629L755.2952 167.77379Q754.7327 171.35191 752.3968 173.37535Q750.06085 175.39879 746.6702 175.39879Q742.4046 175.39879 739.81866 172.61754Q737.2327 169.83629 737.2327 164.63316Q737.2327 161.27379 738.3499 158.75816Q739.4671 156.24254 741.74054 154.97691Q744.014 153.71129 746.68585 153.71129Q750.06085 153.71129 752.2093 155.42223Q754.3577 157.13316 754.9671 160.27379L751.5452 160.80504Q751.06085 158.71129 749.81866 157.6566Q748.5765 156.60191 746.8265 156.60191Q744.1702 156.60191 742.50616 158.50816Q740.8421 160.41441 740.8421 164.53941Q740.8421 168.71129 742.44366 170.60973Q744.0452 172.50816 746.62335 172.50816Q748.7015 172.50816 750.0843 171.23473Q751.4671 169.96129 751.8421 167.33629ZM758.3265 174.93004L758.3265 146.28941L761.8421 146.28941L761.8421 162.61754L770.1702 154.18004L774.7171 154.18004L766.7796 161.88316L775.514 174.93004L771.18585 174.93004L764.3265 164.32066L761.8421 166.71129L761.8421 174.93004L758.3265 174.93004ZM792.514 168.24254L796.139 168.69566Q795.2796 171.88316 792.9593 173.64098Q790.639 175.39879 787.014 175.39879Q782.4671 175.39879 779.80304 172.5941Q777.139 169.78941 777.139 164.72691Q777.139 159.49254 779.8343 156.60191Q782.5296 153.71129 786.8265 153.71129Q790.9827 153.71129 793.62335 156.54723Q796.264 159.38316 796.264 164.52379Q796.264 164.83629 796.2327 165.46129L780.764 165.46129Q780.9671 168.86754 782.7015 170.68785Q784.43585 172.50816 787.0452 172.50816Q788.9671 172.50816 790.3343 171.49254Q791.7015 170.47691 792.514 168.24254ZM780.9671 162.57066L792.5452 162.57066Q792.31085 159.94566 791.2171 158.63316Q789.5452 156.60191 786.8577 156.60191Q784.43585 156.60191 782.7874 158.22691Q781.139 159.85191 780.9671 162.57066ZM808.2288 171.78941L808.74445 174.88316Q807.2601 175.21129 806.0882 175.21129Q804.1663 175.21129 803.11163 174.60191Q802.05695 173.99254 801.62726 173.00816Q801.1976 172.02379 801.1976 168.85191L801.1976 156.91441L798.61945 156.91441L798.61945 154.18004L801.1976 154.18004L801.1976 149.05504L804.6976 146.94566L804.6976 154.18004L808.2288 154.18004L808.2288 156.91441L804.6976 156.91441L804.6976 169.05504Q804.6976 170.55504 804.8851 170.98473Q805.0726 171.41441 805.48663 171.66441Q805.9007 171.91441 806.68195 171.91441Q807.2757 171.91441 808.2288 171.78941ZM812.6702 174.93004L812.6702 170.93004L816.6702 170.93004L816.6702 174.93004L812.6702 174.93004ZM822.79913 150.33629L822.79913 146.28941L826.31476 146.28941L826.31476 150.33629L822.79913 150.33629ZM822.79913 174.93004L822.79913 154.18004L826.31476 154.18004L826.31476 174.93004L822.79913 174.93004ZM830.3577 164.55504Q830.3577 158.78941 833.56085 156.02379Q836.2327 153.71129 840.0921 153.71129Q844.3577 153.71129 847.0765 156.51598Q849.7952 159.32066 849.7952 164.25816Q849.7952 168.27379 848.5921 170.56285Q847.389 172.85191 845.0921 174.12535Q842.7952 175.39879 840.0921 175.39879Q835.7327 175.39879 833.0452 172.60191Q830.3577 169.80504 830.3577 164.55504ZM833.9671 164.55504Q833.9671 168.53941 835.7093 170.52379Q837.4515 172.50816 840.0921 172.50816Q842.7015 172.50816 844.44366 170.51598Q846.18585 168.52379 846.18585 164.44566Q846.18585 160.58629 844.43585 158.60973Q842.68585 156.63316 840.0921 156.63316Q837.4515 156.63316 835.7093 158.60191Q833.9671 160.57066 833.9671 164.55504ZM862.389 175.41441L870.68585 145.80504L873.49835 145.80504L865.2171 175.41441L862.389 175.41441Z" fill-rule="nonzero" fill="#434343"></path><path d="M680.012 220.93004L691.012 192.28941L695.09015 192.28941L706.8089 220.93004L702.4964 220.93004L699.15265 212.25816L687.1839 212.25816L684.0433 220.93004L680.012 220.93004ZM688.27765 209.16441L697.9808 209.16441L694.9964 201.24254Q693.637 197.63316 692.96515 195.30504Q692.4183 198.05504 691.4183 200.77379L688.27765 209.16441ZM709.39484 228.88316L709.39484 200.18004L712.59796 200.18004L712.59796 202.88316Q713.72296 201.30504 715.15265 200.50816Q716.58234 199.71129 718.6136 199.71129Q721.26984 199.71129 723.3011 201.07848Q725.33234 202.44566 726.3636 204.93785Q727.39484 207.43004 727.39484 210.39879Q727.39484 213.58629 726.2542 216.13316Q725.1136 218.68004 722.9339 220.03941Q720.7542 221.39879 718.3636 221.39879Q716.59796 221.39879 715.1995 220.6566Q713.8011 219.91441 712.91046 218.77379L712.91046 228.88316L709.39484 228.88316ZM712.58234 210.68004Q712.58234 214.68004 714.1995 216.5941Q715.8167 218.50816 718.1292 218.50816Q720.47296 218.50816 722.137 216.52379Q723.8011 214.53941 723.8011 210.38316Q723.8011 206.41441 722.1761 204.44566Q720.5511 202.47691 718.28546 202.47691Q716.03546 202.47691 714.3089 204.57066Q712.58234 206.66441 712.58234 210.68004ZM731.6409 228.88316L731.6409 200.18004L734.84406 200.18004L734.84406 202.88316Q735.96906 201.30504 737.39874 200.50816Q738.8284 199.71129 740.8597 199.71129Q743.5159 199.71129 745.5472 201.07848Q747.5784 202.44566 748.6097 204.93785Q749.6409 207.43004 749.6409 210.39879Q749.6409 213.58629 748.5003 216.13316Q747.3597 218.68004 745.18 220.03941Q743.0003 221.39879 740.6097 221.39879Q738.84406 221.39879 737.4456 220.6566Q736.0472 219.91441 735.15656 218.77379L735.15656 228.88316L731.6409 228.88316ZM734.8284 210.68004Q734.8284 214.68004 736.4456 216.5941Q738.0628 218.50816 740.3753 218.50816Q742.71906 218.50816 744.3831 216.52379Q746.0472 214.53941 746.0472 210.38316Q746.0472 206.41441 744.4222 204.44566Q742.7972 202.47691 740.53156 202.47691Q738.28156 202.47691 736.555 204.57066Q734.8284 206.66441 734.8284 210.68004ZM764.15656 211.72691L767.7347 211.41441Q767.9847 213.57066 768.91437 214.94566Q769.84406 216.32066 771.7972 217.17223Q773.7503 218.02379 776.1878 218.02379Q778.3597 218.02379 780.0159 217.37535Q781.6722 216.72691 782.4847 215.60191Q783.2972 214.47691 783.2972 213.14879Q783.2972 211.80504 782.5159 210.79723Q781.7347 209.78941 779.9378 209.11754Q778.78156 208.66441 774.83624 207.7191Q770.8909 206.77379 769.3128 205.93004Q767.2659 204.85191 766.2581 203.25816Q765.2503 201.66441 765.2503 199.69566Q765.2503 197.52379 766.4847 195.64098Q767.71906 193.75816 770.0784 192.7816Q772.4378 191.80504 775.3284 191.80504Q778.5159 191.80504 780.9456 192.82848Q783.3753 193.85191 784.6878 195.8441Q786.0003 197.83629 786.09406 200.36754L782.4534 200.63316Q782.1722 197.91441 780.47687 196.5316Q778.78156 195.14879 775.4847 195.14879Q772.0472 195.14879 770.47687 196.4066Q768.90656 197.66441 768.90656 199.44566Q768.90656 200.99254 770.0159 201.97691Q771.1097 202.97691 775.72687 204.02379Q780.34406 205.07066 782.0628 205.85191Q784.5628 207.00816 785.7581 208.77379Q786.9534 210.53941 786.9534 212.83629Q786.9534 215.13316 785.6409 217.14879Q784.3284 219.16441 781.8831 220.28941Q779.4378 221.41441 776.3597 221.41441Q772.4847 221.41441 769.85187 220.2816Q767.21906 219.14879 765.72687 216.87535Q764.2347 214.60191 764.15656 211.72691ZM805.8831 214.24254L809.5081 214.69566Q808.64874 217.88316 806.3284 219.64098Q804.0081 221.39879 800.3831 221.39879Q795.83624 221.39879 793.1722 218.5941Q790.5081 215.78941 790.5081 210.72691Q790.5081 205.49254 793.2034 202.60191Q795.89874 199.71129 800.1956 199.71129Q804.35187 199.71129 806.9925 202.54723Q809.6331 205.38316 809.6331 210.52379Q809.6331 210.83629 809.60187 211.46129L794.1331 211.46129Q794.33624 214.86754 796.0706 216.68785Q797.805 218.50816 800.41437 218.50816Q802.33624 218.50816 803.7034 217.49254Q805.0706 216.47691 805.8831 214.24254ZM794.33624 208.57066L805.91437 208.57066Q805.68 205.94566 804.58624 204.63316Q802.91437 202.60191 800.22687 202.60191Q797.805 202.60191 796.15656 204.22691Q794.5081 205.85191 794.33624 208.57066ZM813.8792 220.93004L813.8792 200.18004L817.0511 200.18004L817.0511 203.33629Q818.2542 201.11754 819.28546 200.41441Q820.3167 199.71129 821.53546 199.71129Q823.3167 199.71129 825.16046 200.85191L823.9417 204.11754Q822.66046 203.35191 821.3636 203.35191Q820.20734 203.35191 819.2933 204.04723Q818.3792 204.74254 817.9886 205.96129Q817.39484 207.83629 817.39484 210.07066L817.39484 220.93004L813.8792 220.93004ZM833.012 220.93004L825.1214 200.18004L828.8245 200.18004L833.27765 212.60191Q833.9964 214.61754 834.6058 216.78941Q835.0745 215.14879 835.9183 212.83629L840.52765 200.18004L844.137 200.18004L836.2933 220.93004L833.012 220.93004ZM861.4495 214.24254L865.0745 214.69566Q864.21515 217.88316 861.89484 219.64098Q859.5745 221.39879 855.9495 221.39879Q851.40265 221.39879 848.7386 218.5941Q846.0745 215.78941 846.0745 210.72691Q846.0745 205.49254 848.76984 202.60191Q851.46515 199.71129 855.762 199.71129Q859.9183 199.71129 862.5589 202.54723Q865.1995 205.38316 865.1995 210.52379Q865.1995 210.83629 865.1683 211.46129L849.6995 211.46129Q849.90265 214.86754 851.637 216.68785Q853.3714 218.50816 855.9808 218.50816Q857.90265 218.50816 859.26984 217.49254Q860.637 216.47691 861.4495 214.24254ZM849.90265 208.57066L861.4808 208.57066Q861.2464 205.94566 860.15265 204.63316Q858.4808 202.60191 855.7933 202.60191Q853.3714 202.60191 851.72296 204.22691Q850.0745 205.85191 849.90265 208.57066ZM869.4456 220.93004L869.4456 200.18004L872.6175 200.18004L872.6175 203.33629Q873.8206 201.11754 874.85187 200.41441Q875.8831 199.71129 877.10187 199.71129Q878.8831 199.71129 880.72687 200.85191L879.5081 204.11754Q878.22687 203.35191 876.93 203.35191Q875.77374 203.35191 874.8597 204.04723Q873.9456 204.74254 873.555 205.96129Q872.96124 207.83629 872.96124 210.07066L872.96124 220.93004L869.4456 220.93004Z" fill-rule="nonzero" fill="#434343"></path><path d="M33.989502 132.35486L33.989502 132.35486C33.989502 117.89659 45.71024 106.17585 60.168503 106.17585L286.1727 106.17585C293.1158 106.17585 299.77454 108.93399 304.68405 113.843506C309.59357 118.75302 312.3517 125.41175 312.3517 132.35486L312.3517 237.06772C312.3517 251.52599 300.63098 263.2467 286.1727 263.2467L60.168503 263.2467C45.71024 263.2467 33.989502 251.52599 33.989502 237.06772Z" fill-rule="nonzero" fill="#f3f3f3" stroke="#cccccc" stroke-width="2.0" stroke-linejoin="round" stroke-linecap="butt"></path><path d="M81.58857 165.72691L85.166695 165.41441Q85.416695 167.57066 86.34638 168.94566Q87.27607 170.32066 89.229195 171.17223Q91.18232 172.02379 93.61982 172.02379Q95.791695 172.02379 97.447945 171.37535Q99.104195 170.72691 99.916695 169.60191Q100.729195 168.47691 100.729195 167.14879Q100.729195 165.80504 99.947945 164.79723Q99.166695 163.78941 97.36982 163.11754Q96.21357 162.66441 92.26826 161.7191Q88.322945 160.77379 86.74482 159.93004Q84.697945 158.85191 83.69013 157.25816Q82.68232 155.66441 82.68232 153.69566Q82.68232 151.52379 83.916695 149.64098Q85.15107 147.75816 87.510445 146.7816Q89.86982 145.80504 92.760445 145.80504Q95.947945 145.80504 98.37763 146.82848Q100.80732 147.85191 102.11982 149.8441Q103.43232 151.83629 103.52607 154.36754L99.885445 154.63316Q99.604195 151.91441 97.90888 150.5316Q96.21357 149.14879 92.916695 149.14879Q89.479195 149.14879 87.90888 150.4066Q86.33857 151.66441 86.33857 153.44566Q86.33857 154.99254 87.447945 155.97691Q88.541695 156.97691 93.15888 158.02379Q97.77607 159.07066 99.49482 159.85191Q101.99482 161.00816 103.19013 162.77379Q104.385445 164.53941 104.385445 166.83629Q104.385445 169.13316 103.072945 171.14879Q101.760445 173.16441 99.31513 174.28941Q96.86982 175.41441 93.791695 175.41441Q89.916695 175.41441 87.28388 174.2816Q84.65107 173.14879 83.15888 170.87535Q81.666695 168.60191 81.58857 165.72691ZM107.79951 164.55504Q107.79951 158.78941 111.00263 156.02379Q113.67451 153.71129 117.53388 153.71129Q121.79951 153.71129 124.51826 156.51598Q127.23701 159.32066 127.23701 164.25816Q127.23701 168.27379 126.03388 170.56285Q124.83076 172.85191 122.53388 174.12535Q120.23701 175.39879 117.53388 175.39879Q113.17451 175.39879 110.48701 172.60191Q107.79951 169.80504 107.79951 164.55504ZM111.40888 164.55504Q111.40888 168.53941 113.15107 170.52379Q114.89326 172.50816 117.53388 172.50816Q120.14326 172.50816 121.885445 170.51598Q123.62763 168.52379 123.62763 164.44566Q123.62763 160.58629 121.87763 158.60973Q120.12763 156.63316 117.53388 156.63316Q114.89326 156.63316 113.15107 158.60191Q111.40888 160.57066 111.40888 164.55504ZM144.88936 167.33629L148.34248 167.77379Q147.77998 171.35191 145.44405 173.37535Q143.10811 175.39879 139.71748 175.39879Q135.45186 175.39879 132.86592 172.61754Q130.27998 169.83629 130.27998 164.63316Q130.27998 161.27379 131.39717 158.75816Q132.51436 156.24254 134.7878 154.97691Q137.06123 153.71129 139.73311 153.71129Q143.10811 153.71129 145.25655 155.42223Q147.40498 157.13316 148.01436 160.27379L144.59248 160.80504Q144.10811 158.71129 142.86592 157.6566Q141.62373 156.60191 139.87373 156.60191Q137.21748 156.60191 135.55342 158.50816Q133.88936 160.41441 133.88936 164.53941Q133.88936 168.71129 135.49092 170.60973Q137.09248 172.50816 139.67061 172.50816Q141.74873 172.50816 143.13155 171.23473Q144.51436 169.96129 144.88936 167.33629ZM151.37373 174.93004L151.37373 146.28941L154.88936 146.28941L154.88936 162.61754L163.21748 154.18004L167.76436 154.18004L159.82686 161.88316L168.56123 174.93004L164.23311 174.93004L157.37373 164.32066L154.88936 166.71129L154.88936 174.93004L151.37373 174.93004ZM185.56123 168.24254L189.18623 168.69566Q188.32686 171.88316 186.00655 173.64098Q183.68623 175.39879 180.06123 175.39879Q175.51436 175.39879 172.8503 172.5941Q170.18623 169.78941 170.18623 164.72691Q170.18623 159.49254 172.88155 156.60191Q175.57686 153.71129 179.87373 153.71129Q184.02998 153.71129 186.67061 156.54723Q189.31123 159.38316 189.31123 164.52379Q189.31123 164.83629 189.27998 165.46129L173.81123 165.46129Q174.01436 168.86754 175.74873 170.68785Q177.48311 172.50816 180.09248 172.50816Q182.01436 172.50816 183.38155 171.49254Q184.74873 170.47691 185.56123 168.24254ZM174.01436 162.57066L185.59248 162.57066Q185.35811 159.94566 184.26436 158.63316Q182.59248 156.60191 179.90498 156.60191Q177.48311 156.60191 175.83467 158.22691Q174.18623 159.85191 174.01436 162.57066ZM201.27608 171.78941L201.7917 174.88316Q200.30733 175.21129 199.13545 175.21129Q197.21358 175.21129 196.15889 174.60191Q195.1042 173.99254 194.67451 173.00816Q194.24483 172.02379 194.24483 168.85191L194.24483 156.91441L191.6667 156.91441L191.6667 154.18004L194.24483 154.18004L194.24483 149.05504L197.74483 146.94566L197.74483 154.18004L201.27608 154.18004L201.27608 156.91441L197.74483 156.91441L197.74483 169.05504Q197.74483 170.55504 197.93233 170.98473Q198.11983 171.41441 198.53389 171.66441Q198.94795 171.91441 199.7292 171.91441Q200.32295 171.91441 201.27608 171.78941ZM205.71748 174.93004L205.71748 170.93004L209.71748 170.93004L209.71748 174.93004L205.71748 174.93004ZM215.84639 150.33629L215.84639 146.28941L219.36201 146.28941L219.36201 150.33629L215.84639 150.33629ZM215.84639 174.93004L215.84639 154.18004L219.36201 154.18004L219.36201 174.93004L215.84639 174.93004ZM223.40498 164.55504Q223.40498 158.78941 226.60811 156.02379Q229.27998 153.71129 233.13936 153.71129Q237.40498 153.71129 240.12373 156.51598Q242.84248 159.32066 242.84248 164.25816Q242.84248 168.27379 241.63936 170.56285Q240.43623 172.85191 238.13936 174.12535Q235.84248 175.39879 233.13936 175.39879Q228.77998 175.39879 226.09248 172.60191Q223.40498 169.80504 223.40498 164.55504ZM227.01436 164.55504Q227.01436 168.53941 228.75655 170.52379Q230.49873 172.50816 233.13936 172.50816Q235.74873 172.50816 237.49092 170.51598Q239.23311 168.52379 239.23311 164.44566Q239.23311 160.58629 237.48311 158.60973Q235.73311 156.63316 233.13936 156.63316Q230.49873 156.63316 228.75655 158.60191Q227.01436 160.57066 227.01436 164.55504ZM255.43623 175.41441L263.7331 145.80504L266.5456 145.80504L258.26434 175.41441L255.43623 175.41441Z" fill-rule="nonzero" fill="#434343"></path><path d="M73.05927 220.93004L84.05927 192.28941L88.1374 192.28941L99.85615 220.93004L95.54365 220.93004L92.1999 212.25816L80.23115 212.25816L77.09052 220.93004L73.05927 220.93004ZM81.3249 209.16441L91.02802 209.16441L88.04365 201.24254Q86.68427 197.63316 86.0124 195.30504Q85.46552 198.05504 84.46552 200.77379L81.3249 209.16441ZM102.442085 228.88316L102.442085 200.18004L105.64521 200.18004L105.64521 202.88316Q106.77021 201.30504 108.1999 200.50816Q109.629585 199.71129 111.660835 199.71129Q114.317085 199.71129 116.348335 201.07848Q118.379585 202.44566 119.410835 204.93785Q120.442085 207.43004 120.442085 210.39879Q120.442085 213.58629 119.30146 216.13316Q118.160835 218.68004 115.98115 220.03941Q113.80146 221.39879 111.410835 221.39879Q109.64521 221.39879 108.24677 220.6566Q106.848335 219.91441 105.95771 218.77379L105.95771 228.88316L102.442085 228.88316ZM105.629585 210.68004Q105.629585 214.68004 107.24677 216.5941Q108.86396 218.50816 111.17646 218.50816Q113.52021 218.50816 115.18427 216.52379Q116.848335 214.53941 116.848335 210.38316Q116.848335 206.41441 115.223335 204.44566Q113.598335 202.47691 111.33271 202.47691Q109.08271 202.47691 107.35615 204.57066Q105.629585 206.66441 105.629585 210.68004ZM124.68818 228.88316L124.68818 200.18004L127.891304 200.18004L127.891304 202.88316Q129.01631 201.30504 130.446 200.50816Q131.87569 199.71129 133.90694 199.71129Q136.56319 199.71129 138.59444 201.07848Q140.62569 202.44566 141.65694 204.93785Q142.68819 207.43004 142.68819 210.39879Q142.68819 213.58629 141.54756 216.13316Q140.40694 218.68004 138.22725 220.03941Q136.04756 221.39879 133.65694 221.39879Q131.89131 221.39879 130.49287 220.6566Q129.09444 219.91441 128.20381 218.77379L128.20381 228.88316L124.68818 228.88316ZM127.87568 210.68004Q127.87568 214.68004 129.49287 216.5941Q131.11006 218.50816 133.42256 218.50816Q135.76631 218.50816 137.43037 216.52379Q139.09444 214.53941 139.09444 210.38316Q139.09444 206.41441 137.46944 204.44566Q135.84444 202.47691 133.57881 202.47691Q131.32881 202.47691 129.60225 204.57066Q127.87568 206.66441 127.87568 210.68004ZM157.20381 211.72691L160.78194 211.41441Q161.03194 213.57066 161.96162 214.94566Q162.89131 216.32066 164.84444 217.17223Q166.79756 218.02379 169.23506 218.02379Q171.40694 218.02379 173.06319 217.37535Q174.71944 216.72691 175.53194 215.60191Q176.34444 214.47691 176.34444 213.14879Q176.34444 211.80504 175.56319 210.79723Q174.78194 209.78941 172.98506 209.11754Q171.82881 208.66441 167.8835 207.7191Q163.93819 206.77379 162.36006 205.93004Q160.31319 204.85191 159.30537 203.25816Q158.29756 201.66441 158.29756 199.69566Q158.29756 197.52379 159.53194 195.64098Q160.76631 193.75816 163.12569 192.7816Q165.48506 191.80504 168.37569 191.80504Q171.56319 191.80504 173.99287 192.82848Q176.42256 193.85191 177.73506 195.8441Q179.04756 197.83629 179.14131 200.36754L175.50069 200.63316Q175.21944 197.91441 173.52412 196.5316Q171.82881 195.14879 168.53194 195.14879Q165.09444 195.14879 163.52412 196.4066Q161.95381 197.66441 161.95381 199.44566Q161.95381 200.99254 163.06319 201.97691Q164.15694 202.97691 168.77412 204.02379Q173.39131 205.07066 175.11006 205.85191Q177.61006 207.00816 178.80537 208.77379Q180.00069 210.53941 180.00069 212.83629Q180.00069 215.13316 178.68819 217.14879Q177.37569 219.16441 174.93037 220.28941Q172.48506 221.41441 169.40694 221.41441Q165.53194 221.41441 162.89912 220.2816Q160.26631 219.14879 158.77412 216.87535Q157.28194 214.60191 157.20381 211.72691ZM198.93037 214.24254L202.55537 214.69566Q201.696 217.88316 199.37569 219.64098Q197.05537 221.39879 193.43037 221.39879Q188.8835 221.39879 186.21944 218.5941Q183.55537 215.78941 183.55537 210.72691Q183.55537 205.49254 186.25069 202.60191Q188.946 199.71129 193.24287 199.71129Q197.39912 199.71129 200.03975 202.54723Q202.68037 205.38316 202.68037 210.52379Q202.68037 210.83629 202.64912 211.46129L187.18037 211.46129Q187.3835 214.86754 189.11787 216.68785Q190.85225 218.50816 193.46162 218.50816Q195.3835 218.50816 196.75069 217.49254Q198.11787 216.47691 198.93037 214.24254ZM187.3835 208.57066L198.96162 208.57066Q198.72725 205.94566 197.6335 204.63316Q195.96162 202.60191 193.27412 202.60191Q190.85225 202.60191 189.20381 204.22691Q187.55537 205.85191 187.3835 208.57066ZM206.92647 220.93004L206.92647 200.18004L210.09834 200.18004L210.09834 203.33629Q211.30147 201.11754 212.33272 200.41441Q213.36397 199.71129 214.58272 199.71129Q216.36397 199.71129 218.20772 200.85191L216.98897 204.11754Q215.70772 203.35191 214.41084 203.35191Q213.2546 203.35191 212.34053 204.04723Q211.42647 204.74254 211.03584 205.96129Q210.4421 207.83629 210.4421 210.07066L210.4421 220.93004L206.92647 220.93004ZM226.05928 220.93004L218.16866 200.18004L221.87178 200.18004L226.3249 212.60191Q227.04366 214.61754 227.65303 216.78941Q228.12178 215.14879 228.96553 212.83629L233.5749 200.18004L237.18428 200.18004L229.34053 220.93004L226.05928 220.93004ZM254.49678 214.24254L258.12177 214.69566Q257.2624 217.88316 254.9421 219.64098Q252.62178 221.39879 248.99678 221.39879Q244.4499 221.39879 241.78584 218.5941Q239.12178 215.78941 239.12178 210.72691Q239.12178 205.49254 241.8171 202.60191Q244.5124 199.71129 248.80928 199.71129Q252.96553 199.71129 255.60616 202.54723Q258.24677 205.38316 258.24677 210.52379Q258.24677 210.83629 258.2155 211.46129L242.74678 211.46129Q242.9499 214.86754 244.68428 216.68785Q246.41866 218.50816 249.02803 218.50816Q250.9499 218.50816 252.3171 217.49254Q253.68428 216.47691 254.49678 214.24254ZM242.9499 208.57066L254.52803 208.57066Q254.29366 205.94566 253.1999 204.63316Q251.52803 202.60191 248.84053 202.60191Q246.41866 202.60191 244.77022 204.22691Q243.12178 205.85191 242.9499 208.57066ZM262.49286 220.93004L262.49286 200.18004L265.66473 200.18004L265.66473 203.33629Q266.86786 201.11754 267.8991 200.41441Q268.93036 199.71129 270.1491 199.71129Q271.93036 199.71129 273.7741 200.85191L272.55536 204.11754Q271.2741 203.35191 269.97723 203.35191Q268.82098 203.35191 267.90692 204.04723Q266.99286 204.74254 266.60223 205.96129Q266.00848 207.83629 266.00848 210.07066L266.00848 220.93004L262.49286 220.93004Z" fill-rule="nonzero" fill="#434343"></path><path d="M125.05249 421.12912L125.05249 421.12912C125.05249 406.67087 136.77324 394.95013 151.23149 394.95013L282.36957 394.95013C289.31265 394.95013 295.97137 397.70828 300.8809 402.6178C305.7904 407.5273 308.54855 414.18604 308.54855 421.12912L308.54855 525.842C308.54855 540.30023 296.82782 552.021 282.36957 552.021L151.23149 552.021L151.23149 552.021C136.77324 552.021 125.05249 540.30023 125.05249 525.842Z" fill-rule="nonzero" fill="#f3f3f3" stroke="#cccccc" stroke-width="2.0" stroke-linejoin="round" stroke-linecap="butt"></path><path d="M189.18333 476.65744L192.98021 477.6262Q191.77708 482.28244 188.68333 484.73557Q185.58958 487.1887 181.12083 487.1887Q176.49583 487.1887 173.58958 485.30588Q170.68333 483.42307 169.17552 479.84494Q167.66771 476.2668 167.66771 472.17307Q167.66771 467.7043 169.37083 464.36838Q171.07396 461.03244 174.23021 459.30588Q177.38646 457.5793 181.18333 457.5793Q185.48021 457.5793 188.4099 459.7668Q191.33958 461.9543 192.48021 465.92307L188.76146 466.79807Q187.76146 463.67307 185.86302 462.2512Q183.96458 460.8293 181.10521 460.8293Q177.79271 460.8293 175.58177 462.40744Q173.37083 463.98557 172.4724 466.64963Q171.57396 469.3137 171.57396 472.15744Q171.57396 475.79807 172.63646 478.52463Q173.69896 481.2512 175.94115 482.60275Q178.18333 483.9543 180.80833 483.9543Q183.99583 483.9543 186.19896 482.11838Q188.40208 480.28244 189.18333 476.65744ZM197.11693 486.7043L197.11693 458.0637L200.63255 458.0637L200.63255 486.7043L197.11693 486.7043ZM206.0974 462.11057L206.0974 458.0637L209.61302 458.0637L209.61302 462.11057L206.0974 462.11057ZM206.0974 486.7043L206.0974 465.9543L209.61302 465.9543L209.61302 486.7043L206.0974 486.7043ZM229.17162 480.0168L232.79662 480.46994Q231.93724 483.65744 229.61693 485.41525Q227.29662 487.17307 223.67162 487.17307Q219.12474 487.17307 216.46068 484.36838Q213.79662 481.5637 213.79662 476.5012Q213.79662 471.2668 216.49193 468.3762Q219.18724 465.48557 223.48412 465.48557Q227.64037 465.48557 230.28099 468.3215Q232.92162 471.15744 232.92162 476.29807Q232.92162 476.61057 232.89037 477.23557L217.42162 477.23557Q217.62474 480.6418 219.35912 482.46213Q221.09349 484.28244 223.70287 484.28244Q225.62474 484.28244 226.99193 483.2668Q228.35912 482.2512 229.17162 480.0168ZM217.62474 474.34494L229.20287 474.34494Q228.96849 471.71994 227.87474 470.40744Q226.20287 468.3762 223.51537 468.3762Q221.09349 468.3762 219.44505 470.0012Q217.79662 471.6262 217.62474 474.34494ZM237.21458 486.7043L237.21458 465.9543L240.37083 465.9543L240.37083 468.90744Q242.66771 465.48557 246.98021 465.48557Q248.85521 465.48557 250.42552 466.16525Q251.99583 466.84494 252.77708 467.9387Q253.55833 469.03244 253.87083 470.53244Q254.07396 471.5012 254.07396 473.9543L254.07396 486.7043L250.55833 486.7043L250.55833 474.0793Q250.55833 471.9387 250.14427 470.8762Q249.73021 469.8137 248.68333 469.17307Q247.63646 468.53244 246.23021 468.53244Q243.99583 468.53244 242.36302 469.96213Q240.73021 471.3918 240.73021 475.3762L240.73021 486.7043L237.21458 486.7043ZM267.13257 483.5637L267.6482 486.65744Q266.16382 486.98557 264.99194 486.98557Q263.07007 486.98557 262.01538 486.3762Q260.9607 485.7668 260.531 484.78244Q260.10132 483.79807 260.10132 480.6262L260.10132 468.6887L257.5232 468.6887L257.5232 465.9543L260.10132 465.9543L260.10132 460.8293L263.60132 458.71994L263.60132 465.9543L267.13257 465.9543L267.13257 468.6887L263.60132 468.6887L263.60132 480.8293Q263.60132 482.3293 263.78882 482.759Q263.97632 483.1887 264.39038 483.4387Q264.80444 483.6887 265.5857 483.6887Q266.17944 483.6887 267.13257 483.5637Z" fill-rule="nonzero" fill="#434343"></path><path d="M141.05249 437.12912L141.05249 437.12912C141.05249 422.67087 152.77324 410.95013 167.23149 410.95013L298.36957 410.95013C305.31265 410.95013 311.97137 413.70828 316.8809 418.6178C321.7904 423.5273 324.54855 430.18604 324.54855 437.12912L324.54855 541.842C324.54855 556.30023 312.82782 568.021 298.36957 568.021L167.23149 568.021L167.23149 568.021C152.77324 568.021 141.05249 556.30023 141.05249 541.842Z" fill-rule="nonzero" fill="#f3f3f3" stroke="#cccccc" stroke-width="2.0" stroke-linejoin="round" stroke-linecap="butt"></path><path d="M205.18333 492.65744L208.98021 493.6262Q207.77708 498.28244 204.68333 500.73557Q201.58958 503.1887 197.12083 503.1887Q192.49583 503.1887 189.58958 501.30588Q186.68333 499.42307 185.17552 495.84494Q183.66771 492.2668 183.66771 488.17307Q183.66771 483.7043 185.37083 480.36838Q187.07396 477.03244 190.23021 475.30588Q193.38646 473.5793 197.18333 473.5793Q201.48021 473.5793 204.4099 475.7668Q207.33958 477.9543 208.48021 481.92307L204.76146 482.79807Q203.76146 479.67307 201.86302 478.2512Q199.96458 476.8293 197.10521 476.8293Q193.79271 476.8293 191.58177 478.40744Q189.37083 479.98557 188.4724 482.64963Q187.57396 485.3137 187.57396 488.15744Q187.57396 491.79807 188.63646 494.52463Q189.69896 497.2512 191.94115 498.60275Q194.18333 499.9543 196.80833 499.9543Q199.99583 499.9543 202.19896 498.11838Q204.40208 496.28244 205.18333 492.65744ZM213.11693 502.7043L213.11693 474.0637L216.63255 474.0637L216.63255 502.7043L213.11693 502.7043ZM222.0974 478.11057L222.0974 474.0637L225.61302 474.0637L225.61302 478.11057L222.0974 478.11057ZM222.0974 502.7043L222.0974 481.9543L225.61302 481.9543L225.61302 502.7043L222.0974 502.7043ZM245.17162 496.0168L248.79662 496.46994Q247.93724 499.65744 245.61693 501.41525Q243.29662 503.17307 239.67162 503.17307Q235.12474 503.17307 232.46068 500.36838Q229.79662 497.5637 229.79662 492.5012Q229.79662 487.2668 232.49193 484.3762Q235.18724 481.48557 239.48412 481.48557Q243.64037 481.48557 246.28099 484.3215Q248.92162 487.15744 248.92162 492.29807Q248.92162 492.61057 248.89037 493.23557L233.42162 493.23557Q233.62474 496.6418 235.35912 498.46213Q237.09349 500.28244 239.70287 500.28244Q241.62474 500.28244 242.99193 499.2668Q244.35912 498.2512 245.17162 496.0168ZM233.62474 490.34494L245.20287 490.34494Q244.96849 487.71994 243.87474 486.40744Q242.20287 484.3762 239.51537 484.3762Q237.09349 484.3762 235.44505 486.0012Q233.79662 487.6262 233.62474 490.34494ZM253.21458 502.7043L253.21458 481.9543L256.37085 481.9543L256.37085 484.90744Q258.66772 481.48557 262.98022 481.48557Q264.85522 481.48557 266.42554 482.16525Q267.99585 482.84494 268.7771 483.9387Q269.55835 485.03244 269.87085 486.53244Q270.07397 487.5012 270.07397 489.9543L270.07397 502.7043L266.55835 502.7043L266.55835 490.0793Q266.55835 487.9387 266.1443 486.8762Q265.73022 485.8137 264.68335 485.17307Q263.63647 484.53244 262.23022 484.53244Q259.99585 484.53244 258.36304 485.96213Q256.73022 487.3918 256.73022 491.3762L256.73022 502.7043L253.21458 502.7043ZM283.13257 499.5637L283.6482 502.65744Q282.16382 502.98557 280.99194 502.98557Q279.07007 502.98557 278.01538 502.3762Q276.9607 501.7668 276.531 500.78244Q276.10132 499.79807 276.10132 496.6262L276.10132 484.6887L273.5232 484.6887L273.5232 481.9543L276.10132 481.9543L276.10132 476.8293L279.60132 474.71994L279.60132 481.9543L283.13257 481.9543L283.13257 484.6887L279.60132 484.6887L279.60132 496.8293Q279.60132 498.3293 279.78882 498.759Q279.97632 499.1887 280.39038 499.4387Q280.80444 499.6887 281.5857 499.6887Q282.17944 499.6887 283.13257 499.5637Z" fill-rule="nonzero" fill="#434343"></path><path d="M157.05249 453.12912L157.05249 453.12912C157.05249 438.67087 168.77324 426.95013 183.23149 426.95013L314.36957 426.95013C321.31265 426.95013 327.97137 429.70828 332.8809 434.6178C337.7904 439.5273 340.54855 446.18604 340.54855 453.12912L340.54855 557.842C340.54855 572.30023 328.82782 584.021 314.36957 584.021L183.23149 584.021L183.23149 584.021C168.77324 584.021 157.05249 572.30023 157.05249 557.842Z" fill-rule="nonzero" fill="#f3f3f3" stroke="#cccccc" stroke-width="2.0" stroke-linejoin="round" stroke-linecap="butt"></path><path d="M221.18333 508.65744L224.98021 509.6262Q223.77708 514.2825 220.68333 516.7356Q217.58958 519.1887 213.12083 519.1887Q208.49583 519.1887 205.58958 517.3059Q202.68333 515.4231 201.17552 511.84494Q199.66771 508.2668 199.66771 504.17307Q199.66771 499.7043 201.37083 496.36838Q203.07396 493.03244 206.23021 491.30588Q209.38646 489.5793 213.18333 489.5793Q217.48021 489.5793 220.4099 491.7668Q223.33958 493.9543 224.48021 497.92307L220.76146 498.79807Q219.76146 495.67307 217.86302 494.2512Q215.96458 492.8293 213.10521 492.8293Q209.79271 492.8293 207.58177 494.40744Q205.37083 495.98557 204.4724 498.64963Q203.57396 501.3137 203.57396 504.15744Q203.57396 507.79807 204.63646 510.52463Q205.69896 513.2512 207.94115 514.6028Q210.18333 515.95435 212.80833 515.95435Q215.99583 515.95435 218.19896 514.1184Q220.40208 512.2825 221.18333 508.65744ZM229.11693 518.70435L229.11693 490.0637L232.63255 490.0637L232.63255 518.70435L229.11693 518.70435ZM238.0974 494.11057L238.0974 490.0637L241.61302 490.0637L241.61302 494.11057L238.0974 494.11057ZM238.0974 518.70435L238.0974 497.9543L241.61302 497.9543L241.61302 518.70435L238.0974 518.70435ZM261.17163 512.01685L264.79663 512.47Q263.93726 515.6575 261.61694 517.4153Q259.29663 519.1731 255.67162 519.1731Q251.12474 519.1731 248.46068 516.3684Q245.79662 513.5637 245.79662 508.5012Q245.79662 503.2668 248.49193 500.3762Q251.18724 497.48557 255.48412 497.48557Q259.64038 497.48557 262.281 500.3215Q264.92163 503.15744 264.92163 508.29807Q264.92163 508.61057 264.89038 509.23557L249.42162 509.23557Q249.62474 512.64185 251.35912 514.46216Q253.09349 516.2825 255.70287 516.2825Q257.62476 516.2825 258.99194 515.26685Q260.35913 514.2512 261.17163 512.01685ZM249.62474 506.34494L261.20288 506.34494Q260.9685 503.71994 259.87476 502.40744Q258.20288 500.3762 255.51537 500.3762Q253.09349 500.3762 251.44505 502.0012Q249.79662 503.6262 249.62474 506.34494ZM269.2146 518.70435L269.2146 497.9543L272.37085 497.9543L272.37085 500.90744Q274.66772 497.48557 278.98022 497.48557Q280.85522 497.48557 282.42554 498.16525Q283.99585 498.84494 284.7771 499.9387Q285.55835 501.03244 285.87085 502.53244Q286.07397 503.5012 286.07397 505.9543L286.07397 518.70435L282.55835 518.70435L282.55835 506.0793Q282.55835 503.9387 282.1443 502.8762Q281.73022 501.8137 280.68335 501.17307Q279.63647 500.53244 278.23022 500.53244Q275.99585 500.53244 274.36304 501.96213Q272.73022 503.3918 272.73022 507.3762L272.73022 518.70435L269.2146 518.70435ZM299.13257 515.5637L299.6482 518.6575Q298.16382 518.9856 296.99194 518.9856Q295.07007 518.9856 294.01538 518.3762Q292.9607 517.76685 292.531 516.7825Q292.10132 515.7981 292.10132 512.6262L292.10132 500.6887L289.5232 500.6887L289.5232 497.9543L292.10132 497.9543L292.10132 492.8293L295.60132 490.71994L295.60132 497.9543L299.13257 497.9543L299.13257 500.6887L295.60132 500.6887L295.60132 512.82935Q295.60132 514.32935 295.78882 514.75903Q295.97632 515.1887 296.39038 515.4387Q296.80444 515.6887 297.5857 515.6887Q298.17944 515.6887 299.13257 515.5637Z" fill-rule="nonzero" fill="#434343"></path><path d="M371.98163 530.3837L371.98163 530.3837C371.98163 515.9255 383.70236 504.2047 398.1606 504.2047L529.2987 504.2047C536.2418 504.2047 542.9005 506.96286 547.81006 511.87238C552.71954 516.7819 555.47766 523.4406 555.47766 530.3837L555.47766 635.0966C555.47766 649.5549 543.75696 661.2756 529.2987 661.2756L398.1606 661.2756L398.1606 661.2756C383.70236 661.2756 371.98163 649.5549 371.98163 635.0966Z" fill-rule="nonzero" fill="#f3f3f3" stroke="#cccccc" stroke-width="2.0" stroke-linejoin="round" stroke-linecap="butt"></path><path d="M436.1125 585.91205L439.90936 586.8808Q438.70624 591.53705 435.6125 593.9902Q432.51874 596.4433 428.05 596.4433Q423.425 596.4433 420.51874 594.5605Q417.6125 592.6777 416.10468 589.09955Q414.59686 585.5214 414.59686 581.4277Q414.59686 576.9589 416.3 573.623Q418.0031 570.28705 421.15936 568.5605Q424.3156 566.8339 428.1125 566.8339Q432.40936 566.8339 435.33905 569.0214Q438.26874 571.2089 439.40936 575.1777L435.6906 576.0527Q434.6906 572.9277 432.79218 571.5058Q430.89374 570.0839 428.03436 570.0839Q424.72186 570.0839 422.51093 571.66205Q420.3 573.2402 419.40155 575.90424Q418.5031 578.5683 418.5031 581.41205Q418.5031 585.0527 419.5656 587.77924Q420.6281 590.5058 422.8703 591.85736Q425.1125 593.2089 427.7375 593.2089Q430.925 593.2089 433.1281 591.373Q435.33124 589.53705 436.1125 585.91205ZM444.04608 595.9589L444.04608 567.3183L447.5617 567.3183L447.5617 595.9589L444.04608 595.9589ZM453.02655 571.3652L453.02655 567.3183L456.54218 567.3183L456.54218 571.3652L453.02655 571.3652ZM453.02655 595.9589L453.02655 575.2089L456.54218 575.2089L456.54218 595.9589L453.02655 595.9589ZM476.10077 589.2714L479.72577 589.72455Q478.8664 592.91205 476.54608 594.66986Q474.22577 596.4277 470.60077 596.4277Q466.0539 596.4277 463.38983 593.623Q460.72577 590.8183 460.72577 585.7558Q460.72577 580.5214 463.42108 577.6308Q466.1164 574.7402 470.41327 574.7402Q474.56952 574.7402 477.21014 577.5761Q479.85077 580.41205 479.85077 585.5527Q479.85077 585.8652 479.81952 586.4902L464.35077 586.4902Q464.5539 589.8964 466.28827 591.71674Q468.02264 593.53705 470.63202 593.53705Q472.5539 593.53705 473.92108 592.5214Q475.28827 591.5058 476.10077 589.2714ZM464.5539 583.59955L476.13202 583.59955Q475.89764 580.97455 474.8039 579.66205Q473.13202 577.6308 470.44452 577.6308Q468.02264 577.6308 466.3742 579.2558Q464.72577 580.8808 464.5539 583.59955ZM484.14374 595.9589L484.14374 575.2089L487.3 575.2089L487.3 578.16205Q489.59686 574.7402 493.90936 574.7402Q495.78436 574.7402 497.35468 575.41986Q498.925 576.09955 499.70624 577.1933Q500.4875 578.28705 500.8 579.78705Q501.0031 580.7558 501.0031 583.2089L501.0031 595.9589L497.4875 595.9589L497.4875 583.3339Q497.4875 581.1933 497.07343 580.1308Q496.65936 579.0683 495.6125 578.4277Q494.5656 577.78705 493.15936 577.78705Q490.925 577.78705 489.29218 579.21674Q487.65936 580.6464 487.65936 584.6308L487.65936 595.9589L484.14374 595.9589ZM514.0617 592.8183L514.57733 595.91205Q513.09296 596.2402 511.92108 596.2402Q509.9992 596.2402 508.94452 595.6308Q507.88983 595.0214 507.46014 594.03705Q507.03046 593.0527 507.03046 589.8808L507.03046 577.9433L504.45233 577.9433L504.45233 575.2089L507.03046 575.2089L507.03046 570.0839L510.53046 567.97455L510.53046 575.2089L514.0617 575.2089L514.0617 577.9433L510.53046 577.9433L510.53046 590.0839Q510.53046 591.5839 510.71796 592.0136Q510.90546 592.4433 511.31952 592.6933Q511.73358 592.9433 512.51483 592.9433Q513.1086 592.9433 514.0617 592.8183Z" fill-rule="nonzero" fill="#434343"></path><path d="M387.98163 546.3837L387.98163 546.3837C387.98163 531.9255 399.70236 520.2047 414.1606 520.2047L545.2987 520.2047C552.2418 520.2047 558.9005 522.9629 563.81006 527.8724C568.71954 532.7819 571.47766 539.4406 571.47766 546.3837L571.47766 651.0966C571.47766 665.5549 559.75696 677.2756 545.2987 677.2756L414.1606 677.2756L414.1606 677.2756C399.70236 677.2756 387.98163 665.5549 387.98163 651.0966Z" fill-rule="nonzero" fill="#f3f3f3" stroke="#cccccc" stroke-width="2.0" stroke-linejoin="round" stroke-linecap="butt"></path><path d="M452.1125 601.91205L455.90936 602.8808Q454.70624 607.53705 451.6125 609.9902Q448.51874 612.4433 444.05 612.4433Q439.425 612.4433 436.51874 610.5605Q433.6125 608.6777 432.10468 605.09955Q430.59686 601.5214 430.59686 597.4277Q430.59686 592.9589 432.3 589.623Q434.0031 586.28705 437.15936 584.5605Q440.3156 582.8339 444.1125 582.8339Q448.40936 582.8339 451.33905 585.0214Q454.26874 587.2089 455.40936 591.1777L451.6906 592.0527Q450.6906 588.9277 448.79218 587.5058Q446.89374 586.0839 444.03436 586.0839Q440.72186 586.0839 438.51093 587.66205Q436.3 589.2402 435.40155 591.90424Q434.5031 594.5683 434.5031 597.41205Q434.5031 601.0527 435.5656 603.77924Q436.6281 606.5058 438.8703 607.85736Q441.1125 609.2089 443.7375 609.2089Q446.925 609.2089 449.1281 607.373Q451.33124 605.53705 452.1125 601.91205ZM460.04608 611.9589L460.04608 583.3183L463.5617 583.3183L463.5617 611.9589L460.04608 611.9589ZM469.02655 587.3652L469.02655 583.3183L472.54218 583.3183L472.54218 587.3652L469.02655 587.3652ZM469.02655 611.9589L469.02655 591.2089L472.54218 591.2089L472.54218 611.9589L469.02655 611.9589ZM492.10077 605.2714L495.72577 605.72455Q494.8664 608.91205 492.54608 610.66986Q490.22577 612.4277 486.60077 612.4277Q482.0539 612.4277 479.38983 609.623Q476.72577 606.8183 476.72577 601.7558Q476.72577 596.5214 479.42108 593.6308Q482.1164 590.7402 486.41327 590.7402Q490.56952 590.7402 493.21014 593.5761Q495.85077 596.41205 495.85077 601.5527Q495.85077 601.8652 495.81952 602.4902L480.35077 602.4902Q480.5539 605.8964 482.28827 607.71674Q484.02264 609.53705 486.63202 609.53705Q488.5539 609.53705 489.92108 608.5214Q491.28827 607.5058 492.10077 605.2714ZM480.5539 599.59955L492.13202 599.59955Q491.89764 596.97455 490.8039 595.66205Q489.13202 593.6308 486.44452 593.6308Q484.02264 593.6308 482.3742 595.2558Q480.72577 596.8808 480.5539 599.59955ZM500.14374 611.9589L500.14374 591.2089L503.3 591.2089L503.3 594.16205Q505.59686 590.7402 509.90936 590.7402Q511.78436 590.7402 513.3547 591.41986Q514.925 592.09955 515.70624 593.1933Q516.4875 594.28705 516.8 595.78705Q517.0031 596.7558 517.0031 599.2089L517.0031 611.9589L513.4875 611.9589L513.4875 599.3339Q513.4875 597.1933 513.0734 596.1308Q512.65936 595.0683 511.6125 594.4277Q510.5656 593.78705 509.15936 593.78705Q506.925 593.78705 505.29218 595.21674Q503.65936 596.6464 503.65936 600.6308L503.65936 611.9589L500.14374 611.9589ZM530.0617 608.8183L530.57733 611.91205Q529.09296 612.2402 527.9211 612.2402Q525.9992 612.2402 524.9445 611.6308Q523.88983 611.0214 523.46014 610.03705Q523.03046 609.0527 523.03046 605.8808L523.03046 593.9433L520.45233 593.9433L520.45233 591.2089L523.03046 591.2089L523.03046 586.0839L526.53046 583.97455L526.53046 591.2089L530.0617 591.2089L530.0617 593.9433L526.53046 593.9433L526.53046 606.0839Q526.53046 607.5839 526.71796 608.0136Q526.90546 608.4433 527.3195 608.6933Q527.7336 608.9433 528.51483 608.9433Q529.1086 608.9433 530.0617 608.8183Z" fill-rule="nonzero" fill="#434343"></path><path d="M403.98163 562.3837L403.98163 562.3837C403.98163 547.9255 415.70236 536.2047 430.1606 536.2047L561.2987 536.2047C568.2418 536.2047 574.9005 538.9629 579.81006 543.8724C584.71954 548.7819 587.47766 555.4406 587.47766 562.3837L587.47766 667.0966C587.47766 681.5549 575.75696 693.2756 561.2987 693.2756L430.1606 693.2756L430.1606 693.2756C415.70236 693.2756 403.98163 681.5549 403.98163 667.0966Z" fill-rule="nonzero" fill="#f3f3f3" stroke="#cccccc" stroke-width="2.0" stroke-linejoin="round" stroke-linecap="butt"></path><path d="M468.1125 617.91205L471.90936 618.8808Q470.70624 623.53705 467.6125 625.9902Q464.51874 628.4433 460.05 628.4433Q455.425 628.4433 452.51874 626.5605Q449.6125 624.6777 448.10468 621.09955Q446.59686 617.5214 446.59686 613.4277Q446.59686 608.9589 448.3 605.623Q450.0031 602.28705 453.15936 600.5605Q456.3156 598.8339 460.1125 598.8339Q464.40936 598.8339 467.33905 601.0214Q470.26874 603.2089 471.40936 607.1777L467.6906 608.0527Q466.6906 604.9277 464.79218 603.5058Q462.89374 602.0839 460.03436 602.0839Q456.72186 602.0839 454.51093 603.66205Q452.3 605.2402 451.40155 607.90424Q450.5031 610.5683 450.5031 613.41205Q450.5031 617.0527 451.5656 619.77924Q452.6281 622.5058 454.8703 623.85736Q457.1125 625.2089 459.7375 625.2089Q462.925 625.2089 465.1281 623.373Q467.33124 621.53705 468.1125 617.91205ZM476.04608 627.9589L476.04608 599.3183L479.5617 599.3183L479.5617 627.9589L476.04608 627.9589ZM485.02655 603.3652L485.02655 599.3183L488.54218 599.3183L488.54218 603.3652L485.02655 603.3652ZM485.02655 627.9589L485.02655 607.2089L488.54218 607.2089L488.54218 627.9589L485.02655 627.9589ZM508.10077 621.2714L511.72577 621.72455Q510.8664 624.91205 508.54608 626.66986Q506.22577 628.4277 502.60077 628.4277Q498.0539 628.4277 495.38983 625.623Q492.72577 622.8183 492.72577 617.7558Q492.72577 612.5214 495.42108 609.6308Q498.1164 606.7402 502.41327 606.7402Q506.56952 606.7402 509.21014 609.5761Q511.85077 612.41205 511.85077 617.5527Q511.85077 617.8652 511.81952 618.4902L496.35077 618.4902Q496.5539 621.8964 498.28827 623.71674Q500.02264 625.53705 502.63202 625.53705Q504.5539 625.53705 505.92108 624.5214Q507.28827 623.5058 508.10077 621.2714ZM496.5539 615.59955L508.13202 615.59955Q507.89764 612.97455 506.8039 611.66205Q505.13202 609.6308 502.44452 609.6308Q500.02264 609.6308 498.3742 611.2558Q496.72577 612.8808 496.5539 615.59955ZM516.14374 627.9589L516.14374 607.2089L519.3 607.2089L519.3 610.16205Q521.59686 606.7402 525.90936 606.7402Q527.78436 606.7402 529.3547 607.41986Q530.925 608.09955 531.70624 609.1933Q532.4875 610.28705 532.8 611.78705Q533.0031 612.7558 533.0031 615.2089L533.0031 627.9589L529.4875 627.9589L529.4875 615.3339Q529.4875 613.1933 529.0734 612.1308Q528.65936 611.0683 527.6125 610.4277Q526.5656 609.78705 525.15936 609.78705Q522.925 609.78705 521.2922 611.21674Q519.65936 612.6464 519.65936 616.6308L519.65936 627.9589L516.14374 627.9589ZM546.0617 624.8183L546.57733 627.91205Q545.09296 628.2402 543.9211 628.2402Q541.9992 628.2402 540.9445 627.6308Q539.88983 627.0214 539.46014 626.03705Q539.03046 625.0527 539.03046 621.8808L539.03046 609.9433L536.45233 609.9433L536.45233 607.2089L539.03046 607.2089L539.03046 602.0839L542.53046 599.97455L542.53046 607.2089L546.0617 607.2089L546.0617 609.9433L542.53046 609.9433L542.53046 622.0839Q542.53046 623.5839 542.71796 624.0136Q542.90546 624.4433 543.3195 624.6933Q543.7336 624.9433 544.51483 624.9433Q545.1086 624.9433 546.0617 624.8183Z" fill-rule="nonzero" fill="#434343"></path><path d="M588.94525 423.72272L373.03412 300.0972" fill-rule="evenodd" stroke="#000000" stroke-width="12.0" stroke-linejoin="round" stroke-linecap="butt"></path><path d="M382.88287 282.89642L325.77545 273.038L363.1854 317.29794Z" fill-rule="evenodd" fill="#000000" stroke="#000000" stroke-width="12.0" stroke-linecap="butt"></path><path d="M343.42615 278.33328L577.47455 410.38602" fill-rule="evenodd" stroke="#000000" stroke-width="12.0" stroke-linejoin="round" stroke-linecap="butt"></path><path d="M567.73474 427.6487L624.9033 437.1459L587.2143 393.12335Z" fill-rule="evenodd" fill="#000000" stroke="#000000" stroke-width="12.0" stroke-linecap="butt"></path><path d="M322.56076 390.6305L527.53033 249.5872" fill-rule="evenodd" stroke="#000000" stroke-width="12.0" stroke-linejoin="round" stroke-linecap="butt"></path><path d="M538.76624 265.91565L572.39233 218.71681L516.29443 233.25876Z" fill-rule="evenodd" fill="#000000" stroke="#000000" stroke-width="12.0" stroke-linecap="butt"></path><path d="M559.99866 232.3872L339.56787 386.0479" fill-rule="evenodd" stroke="#000000" stroke-width="12.0" stroke-linejoin="round" stroke-linecap="butt"></path><path d="M328.23315 369.7879L294.8939 417.18982L350.90262 402.30792Z" fill-rule="evenodd" fill="#000000" stroke="#000000" stroke-width="12.0" stroke-linecap="butt"></path><path d="M460.54227 466.90634L432.08432 219.72519" fill-rule="evenodd" stroke="#000000" stroke-width="12.0" stroke-linejoin="round" stroke-linecap="butt"></path><path d="M451.77505 217.45819L425.8558 165.62538L412.39362 221.99217Z" fill-rule="evenodd" fill="#000000" stroke="#000000" stroke-width="12.0" stroke-linecap="butt"></path><path d="M432.112 182.98833L464.45325 449.71652" fill-rule="evenodd" stroke="#000000" stroke-width="12.0" stroke-linejoin="round" stroke-linecap="butt"></path><path d="M444.77655 452.1024L471.00824 503.77777L484.1299 447.33072Z" fill-rule="evenodd" fill="#000000" stroke="#000000" stroke-width="12.0" stroke-linecap="butt"></path></svg>

